<?xml version="1.0" encoding="UTF-8"?>
<!DOCTYPE svg PUBLIC "-//W3C//DTD SVG 1.1//EN" "http://www.w3.org/Graphics/SVG/1.1/DTD/svg11.dtd">
<svg xmlns="http://www.w3.org/2000/svg" version="1.1" width="251px" height="201px" style="shape-rendering:geometricPrecision; text-rendering:geometricPrecision; image-rendering:optimizeQuality; fill-rule:evenodd; clip-rule:evenodd" xmlns:xlink="http://www.w3.org/1999/xlink">
<g><path style="opacity:1" fill="#08fd59" d="M 15.5,-0.5 C 48.5,-0.5 81.5,-0.5 114.5,-0.5C 114.119,0.931117 113.119,1.76445 111.5,2C 112.624,2.24917 113.624,2.74917 114.5,3.5C 111.914,4.48002 109.247,4.81335 106.5,4.5C 106.343,5.87344 106.51,7.20677 107,8.5C 109.761,9.79584 112.595,10.9625 115.5,12C 116.337,13.0113 116.67,14.1779 116.5,15.5C 117.5,15.5 118.5,15.5 119.5,15.5C 119.335,18.8499 119.502,22.1832 120,25.5C 120.247,20.5951 121.413,15.9284 123.5,11.5C 123.808,14.7499 123.975,18.0833 124,21.5C 124.383,22.056 124.883,22.3893 125.5,22.5C 126.084,25.4726 126.751,28.4726 127.5,31.5C 128.172,30.0508 128.839,28.7175 129.5,27.5C 129.665,31.1817 129.499,34.8484 129,38.5C 128.585,40.2909 127.585,41.6243 126,42.5C 125.506,44.1341 125.34,45.8008 125.5,47.5C 123.678,42.4231 122.345,37.0898 121.5,31.5C 120.658,35.072 119.658,38.572 118.5,42C 116.491,41.4064 114.491,41.5731 112.5,42.5C 111.614,41.675 111.281,40.675 111.5,39.5C 111.5,36.8333 111.5,34.1667 111.5,31.5C 109.801,31.6602 108.134,31.4935 106.5,31C 107.167,30.3333 107.833,29.6667 108.5,29C 106.731,27.9359 105.064,26.7692 103.5,25.5C 98.7487,24.9956 94.082,23.4956 89.5,21C 87.8446,19.5557 87.178,17.7224 87.5,15.5C 82.4889,15.6659 77.4889,15.4993 72.5,15C 70.523,12.1939 67.8564,10.3605 64.5,9.5C 63.5344,11.396 63.2011,13.396 63.5,15.5C 58.1667,15.5 52.8333,15.5 47.5,15.5C 47.5,17.5 47.5,19.5 47.5,21.5C 44.7615,20.9648 42.9282,21.9648 42,24.5C 41.3333,27.5 41.3333,30.5 42,33.5C 45.3121,34.9763 48.8121,35.8096 52.5,36C 54.8442,36.8372 56.8442,38.1706 58.5,40C 60.1341,40.4935 61.8008,40.6602 63.5,40.5C 63.5,41.8333 63.5,43.1667 63.5,44.5C 58.3067,43.0335 52.9734,42.3669 47.5,42.5C 47.5,41.1667 47.5,39.8333 47.5,38.5C 42.3449,39.1105 37.6782,37.9438 33.5,35C 30.8333,34.6667 28.1667,34.3333 25.5,34C 22.8693,32.3091 23.2027,31.1424 26.5,30.5C 25.9399,28.1463 25.2733,25.813 24.5,23.5C 21.4973,22.9149 18.4973,22.2482 15.5,21.5C 14.1449,19.0711 12.4783,17.7377 10.5,17.5C 13.2517,15.3933 15.7517,15.3933 18,17.5C 24.2189,16.5278 25.8856,13.1945 23,7.5C 22.6667,7.83333 22.3333,8.16667 22,8.5C 19.8938,6.70896 17.3938,6.04229 14.5,6.5C 14.6427,4.73759 14.3094,3.07092 13.5,1.5C 13.8457,0.304408 14.3457,0.304408 15,1.5C 15.4643,0.905578 15.631,0.238911 15.5,-0.5 Z"/></g>
<g><path style="opacity:1" fill="#08fc67" d="M 114.5,-0.5 C 159.833,-0.5 205.167,-0.5 250.5,-0.5C 250.5,66.5 250.5,133.5 250.5,200.5C 245.167,200.5 239.833,200.5 234.5,200.5C 231.899,197.663 231.899,194.83 234.5,192C 233.54,190.581 232.707,189.081 232,187.5C 232.89,191.948 231.39,192.614 227.5,189.5C 226.468,191.04 225.135,191.54 223.5,191C 224.813,188.674 226.813,187.341 229.5,187C 226.35,183.385 227.016,181.551 231.5,181.5C 231.5,182.833 231.5,184.167 231.5,185.5C 233.06,185.519 234.56,185.852 236,186.5C 236.5,186.167 237,185.833 237.5,185.5C 235.711,184.377 235.378,183.044 236.5,181.5C 237.167,182.167 237.833,182.833 238.5,183.5C 238.833,183 239.167,182.5 239.5,182C 239.469,153.273 239.469,124.44 239.5,95.5C 237.5,95.5 235.5,95.5 233.5,95.5C 233,87.5052 232.5,79.5052 232,71.5C 231.925,68.5527 230.758,67.5527 228.5,68.5C 227.195,62.596 226.361,56.596 226,50.5C 225.764,48.8807 224.931,47.8807 223.5,47.5C 221.771,45.2733 219.438,44.2733 216.5,44.5C 215.726,43.8529 214.726,43.5195 213.5,43.5C 210.174,44.0466 206.84,44.5466 203.5,45C 200.36,48.1945 196.693,49.0278 192.5,47.5C 191.614,48.325 191.281,49.325 191.5,50.5C 189.801,50.3398 188.134,50.5065 186.5,51C 185.5,52.6667 184.167,54 182.5,55C 177.115,56.1283 171.782,57.4617 166.5,59C 163.783,62.6877 160.116,64.6877 155.5,65C 153.939,65.941 152.605,67.1076 151.5,68.5C 148.146,69.0987 145.146,70.432 142.5,72.5C 141.038,71.5291 139.705,71.8624 138.5,73.5C 137.252,72.9598 136.085,72.2931 135,71.5C 131.871,72.1298 128.704,72.7964 125.5,73.5C 127.328,74.7952 129.328,75.7952 131.5,76.5C 129.704,77.1414 128.204,78.1414 127,79.5C 125.777,77.0147 124.277,76.848 122.5,79C 123.448,79.4828 124.448,79.6495 125.5,79.5C 125.04,86.6767 125.54,93.6767 127,100.5C 129.167,99.6667 130.667,98.1667 131.5,96C 135.154,96.075 137.82,94.575 139.5,91.5C 143.604,91.0768 147.271,89.7435 150.5,87.5C 149.129,89.8666 147.129,91.5333 144.5,92.5C 143.614,93.325 143.281,94.325 143.5,95.5C 142.022,95.238 140.689,95.5713 139.5,96.5C 136.977,101.355 132.977,103.689 127.5,103.5C 127.5,105.167 127.5,106.833 127.5,108.5C 125.771,110.727 123.438,111.727 120.5,111.5C 121.966,106.307 122.633,100.973 122.5,95.5C 121.167,95.5 119.833,95.5 118.5,95.5C 118.5,98.1667 118.5,100.833 118.5,103.5C 117.167,103.5 115.833,103.5 114.5,103.5C 114.5,100.833 114.5,98.1667 114.5,95.5C 115.5,95.5 116.5,95.5 117.5,95.5C 117.604,91.9729 116.437,88.9729 114,86.5C 113.138,88.087 112.471,89.7536 112,91.5C 111.501,87.5138 111.334,83.5138 111.5,79.5C 110.5,79.5 109.5,79.5 108.5,79.5C 108.657,78.1266 108.49,76.7932 108,75.5C 104.896,72.2755 101.563,69.2755 98,66.5C 97.5172,65.552 97.3505,64.552 97.5,63.5C 101.184,67.528 105.518,70.8614 110.5,73.5C 111.386,74.325 111.719,75.325 111.5,76.5C 112.5,76.5 113.5,76.5 114.5,76.5C 114.5,77.5 114.5,78.5 114.5,79.5C 115.5,79.5 116.5,79.5 117.5,79.5C 117.312,81.1033 117.812,82.4366 119,83.5C 120.202,81.3225 120.702,78.9892 120.5,76.5C 124.135,76.3444 124.468,75.1777 121.5,73C 124.468,70.8223 124.135,69.6556 120.5,69.5C 120.281,68.325 120.614,67.325 121.5,66.5C 122.814,67.3128 123.981,68.3128 125,69.5C 124.524,67.6799 124.691,66.0133 125.5,64.5C 125.694,66.9118 127.027,67.9118 129.5,67.5C 129.5,66.1667 129.5,64.8333 129.5,63.5C 129.5,59.8333 129.5,56.1667 129.5,52.5C 129.215,50.712 129.548,49.0453 130.5,47.5C 131.48,50.0865 131.813,52.7531 131.5,55.5C 134.374,55.5489 137.208,55.2156 140,54.5C 142.601,56.153 145.435,56.653 148.5,56C 149.357,55.3109 150.023,54.4776 150.5,53.5C 147.628,52.2175 144.795,52.2175 142,53.5C 141.661,50.964 141.161,48.464 140.5,46C 140.725,44.3791 141.558,43.2125 143,42.5C 145.67,42.1307 148.17,41.6307 150.5,41C 151.38,39.6439 151.714,38.1439 151.5,36.5C 148.552,36.2229 145.719,36.5562 143,37.5C 141.837,35.7148 141.17,33.7148 141,31.5C 139.049,40.7637 137.549,40.7637 136.5,31.5C 137.5,31.5 138.5,31.5 139.5,31.5C 139.312,29.8967 139.812,28.5634 141,27.5C 144.63,28.739 147.797,27.9056 150.5,25C 144.149,25.8375 137.816,25.5041 131.5,24C 130.536,21.3533 131.036,18.8533 133,16.5C 133.414,16.9574 133.914,17.2907 134.5,17.5C 139.584,15.0828 144.584,13.2494 149.5,12C 148.57,11.0093 147.404,10.5093 146,10.5C 140.298,12.9015 137.131,11.0682 136.5,5C 132.554,3.67559 128.554,3.00892 124.5,3C 125.406,4.69946 125.739,6.5328 125.5,8.5C 129.93,8.43032 132.263,10.597 132.5,15C 131.552,15.4828 130.552,15.6495 129.5,15.5C 129.5,15.1667 129.5,14.8333 129.5,14.5C 129.306,12.0882 127.973,11.0882 125.5,11.5C 125.433,12.9587 125.766,14.2921 126.5,15.5C 125.532,17.6074 125.198,19.9407 125.5,22.5C 124.883,22.3893 124.383,22.056 124,21.5C 123.975,18.0833 123.808,14.7499 123.5,11.5C 121.413,15.9284 120.247,20.5951 120,25.5C 119.502,22.1832 119.335,18.8499 119.5,15.5C 118.5,15.5 117.5,15.5 116.5,15.5C 116.67,14.1779 116.337,13.0113 115.5,12C 112.595,10.9625 109.761,9.79584 107,8.5C 106.51,7.20677 106.343,5.87344 106.5,4.5C 109.247,4.81335 111.914,4.48002 114.5,3.5C 113.624,2.74917 112.624,2.24917 111.5,2C 113.119,1.76445 114.119,0.931117 114.5,-0.5 Z"/></g>
<g><path style="opacity:1" fill="#fb6c1d" d="M 129.5,14.5 C 128.835,16.3691 128.169,18.3691 127.5,20.5C 126.548,18.9547 126.215,17.288 126.5,15.5C 125.766,14.2921 125.433,12.9587 125.5,11.5C 127.973,11.0882 129.306,12.0882 129.5,14.5 Z"/></g>
<g><path style="opacity:1" fill="#ecd122" d="M 129.5,14.5 C 129.5,14.8333 129.5,15.1667 129.5,15.5C 129.5,19.5 129.5,23.5 129.5,27.5C 128.839,28.7175 128.172,30.0508 127.5,31.5C 126.751,28.4726 126.084,25.4726 125.5,22.5C 125.198,19.9407 125.532,17.6074 126.5,15.5C 126.215,17.288 126.548,18.9547 127.5,20.5C 128.169,18.3691 128.835,16.3691 129.5,14.5 Z"/></g>
<g><path style="opacity:1" fill="#b5e834" d="M -0.5,11.5 C 1.09903,11.2322 2.43236,11.5655 3.5,12.5C 4.70865,20.018 4.70865,27.6846 3.5,35.5C 2.5,35.5 1.5,35.5 0.5,35.5C 0.767809,33.901 0.434475,32.5676 -0.5,31.5C -0.5,24.8333 -0.5,18.1667 -0.5,11.5 Z"/></g>
<g><path style="opacity:1" fill="#f18707" d="M 3.5,12.5 C 3.5,15.5 3.5,18.5 3.5,21.5C 2.5,21.5 1.5,21.5 0.5,21.5C 0.5,18.5 0.5,15.5 0.5,12.5C 1.5,12.5 2.5,12.5 3.5,12.5 Z"/></g>
<g><path style="opacity:1" fill="#0df769" d="M -0.5,-0.5 C 4.83333,-0.5 10.1667,-0.5 15.5,-0.5C 15.631,0.238911 15.4643,0.905578 15,1.5C 14.3457,0.304408 13.8457,0.304408 13.5,1.5C 14.3094,3.07092 14.6427,4.73759 14.5,6.5C 17.3938,6.04229 19.8938,6.70896 22,8.5C 22.3333,8.16667 22.6667,7.83333 23,7.5C 25.8856,13.1945 24.2189,16.5278 18,17.5C 15.7517,15.3933 13.2517,15.3933 10.5,17.5C 12.4783,17.7377 14.1449,19.0711 15.5,21.5C 18.4973,22.2482 21.4973,22.9149 24.5,23.5C 25.2733,25.813 25.9399,28.1463 26.5,30.5C 23.2027,31.1424 22.8693,32.3091 25.5,34C 28.1667,34.3333 30.8333,34.6667 33.5,35C 37.6782,37.9438 42.3449,39.1105 47.5,38.5C 47.5,39.8333 47.5,41.1667 47.5,42.5C 52.9734,42.3669 58.3067,43.0335 63.5,44.5C 66.6437,45.1721 69.6437,46.1721 72.5,47.5C 74.9806,47.774 76.6473,49.1073 77.5,51.5C 73.5101,51.0013 69.5101,50.5013 65.5,50C 64.9341,49.0053 64.2674,48.172 63.5,47.5C 59.9947,48.1091 57.328,46.9424 55.5,44C 47.6145,43.4763 39.7812,43.9763 32,45.5C 29.4719,45.275 26.9719,44.9416 24.5,44.5C 24.5391,42.6412 23.7058,41.3079 22,40.5C 17.6663,40.8459 13.1663,41.1792 8.5,41.5C 7.22346,40.6833 6.89013,42.6833 7.5,47.5C 6.5,47.5 5.5,47.5 4.5,47.5C 4.66018,45.8008 4.49351,44.1341 4,42.5C 3.14748,44.1247 2.14748,44.4581 1,43.5C 0.502577,40.854 0.33591,38.1873 0.5,35.5C 1.5,35.5 2.5,35.5 3.5,35.5C 4.70865,27.6846 4.70865,20.018 3.5,12.5C 2.43236,11.5655 1.09903,11.2322 -0.5,11.5C -0.5,7.5 -0.5,3.5 -0.5,-0.5 Z"/></g>
<g><path style="opacity:1" fill="#10e965" d="M 129.5,52.5 C 128.549,51.0813 128.216,49.4147 128.5,47.5C 127.5,47.5 126.5,47.5 125.5,47.5C 125.34,45.8008 125.506,44.1341 126,42.5C 127.585,41.6243 128.585,40.2909 129,38.5C 129.499,34.8484 129.665,31.1817 129.5,27.5C 129.5,23.5 129.5,19.5 129.5,15.5C 130.552,15.6495 131.552,15.4828 132.5,15C 132.263,10.597 129.93,8.43032 125.5,8.5C 125.739,6.5328 125.406,4.69946 124.5,3C 128.554,3.00892 132.554,3.67559 136.5,5C 137.131,11.0682 140.298,12.9015 146,10.5C 147.404,10.5093 148.57,11.0093 149.5,12C 144.584,13.2494 139.584,15.0828 134.5,17.5C 133.914,17.2907 133.414,16.9574 133,16.5C 131.036,18.8533 130.536,21.3533 131.5,24C 137.816,25.5041 144.149,25.8375 150.5,25C 147.797,27.9056 144.63,28.739 141,27.5C 139.812,28.5634 139.312,29.8967 139.5,31.5C 138.5,31.5 137.5,31.5 136.5,31.5C 137.549,40.7637 139.049,40.7637 141,31.5C 141.17,33.7148 141.837,35.7148 143,37.5C 145.719,36.5562 148.552,36.2229 151.5,36.5C 151.714,38.1439 151.38,39.6439 150.5,41C 148.17,41.6307 145.67,42.1307 143,42.5C 141.558,43.2125 140.725,44.3791 140.5,46C 141.161,48.464 141.661,50.964 142,53.5C 144.795,52.2175 147.628,52.2175 150.5,53.5C 150.023,54.4776 149.357,55.3109 148.5,56C 145.435,56.653 142.601,56.153 140,54.5C 137.208,55.2156 134.374,55.5489 131.5,55.5C 131.813,52.7531 131.48,50.0865 130.5,47.5C 129.548,49.0453 129.215,50.712 129.5,52.5 Z"/></g>
<g><path style="opacity:1" fill="#02fd3e" d="M 111.5,39.5 C 109.801,39.6602 108.134,39.4935 106.5,39C 103.41,35.47 99.7435,32.97 95.5,31.5C 95.5,30.5 95.5,29.5 95.5,28.5C 89.4967,29.0048 83.83,28.0048 78.5,25.5C 74.158,25.5899 70.8247,27.4233 68.5,31C 66.8659,31.4935 65.1992,31.6602 63.5,31.5C 63.5,34.1667 63.5,36.8333 63.5,39.5C 65.9084,40.201 68.2418,41.201 70.5,42.5C 71.9501,43.8498 72.6168,45.5165 72.5,47.5C 69.6437,46.1721 66.6437,45.1721 63.5,44.5C 63.5,43.1667 63.5,41.8333 63.5,40.5C 61.8008,40.6602 60.1341,40.4935 58.5,40C 56.8442,38.1706 54.8442,36.8372 52.5,36C 48.8121,35.8096 45.3121,34.9763 42,33.5C 41.3333,30.5 41.3333,27.5 42,24.5C 42.9282,21.9648 44.7615,20.9648 47.5,21.5C 47.5,19.5 47.5,17.5 47.5,15.5C 52.8333,15.5 58.1667,15.5 63.5,15.5C 63.2011,13.396 63.5344,11.396 64.5,9.5C 67.8564,10.3605 70.523,12.1939 72.5,15C 77.4889,15.4993 82.4889,15.6659 87.5,15.5C 87.178,17.7224 87.8446,19.5557 89.5,21C 94.082,23.4956 98.7487,24.9956 103.5,25.5C 105.064,26.7692 106.731,27.9359 108.5,29C 107.833,29.6667 107.167,30.3333 106.5,31C 108.134,31.4935 109.801,31.6602 111.5,31.5C 111.5,34.1667 111.5,36.8333 111.5,39.5 Z"/></g>
<g><path style="opacity:1" fill="#08f883" d="M -0.5,31.5 C 0.434475,32.5676 0.767809,33.901 0.5,35.5C 0.33591,38.1873 0.502577,40.854 1,43.5C 2.14748,44.4581 3.14748,44.1247 4,42.5C 4.49351,44.1341 4.66018,45.8008 4.5,47.5C 5.5,47.5 6.5,47.5 7.5,47.5C 6.89013,42.6833 7.22346,40.6833 8.5,41.5C 13.1663,41.1792 17.6663,40.8459 22,40.5C 23.7058,41.3079 24.5391,42.6412 24.5,44.5C 26.9719,44.9416 29.4719,45.275 32,45.5C 39.7812,43.9763 47.6145,43.4763 55.5,44C 57.328,46.9424 59.9947,48.1091 63.5,47.5C 63.5,48.8333 63.5,50.1667 63.5,51.5C 58.7682,51.3776 54.1016,51.8776 49.5,53C 47.75,54.7542 47.0833,56.9208 47.5,59.5C 50.0842,59.5688 52.0842,60.7355 53.5,63C 59.1569,63.4994 64.8236,63.6661 70.5,63.5C 72.7224,63.822 74.5557,63.1554 76,61.5C 76.3988,61.7284 76.5654,62.0618 76.5,62.5C 75.7368,64.3684 74.7368,66.0351 73.5,67.5C 72.1779,67.33 71.0113,67.6634 70,68.5C 69.6667,67.8333 69.3333,67.1667 69,66.5C 61.9883,68.2627 54.8216,68.9294 47.5,68.5C 47.5,69.5 47.5,70.5 47.5,71.5C 36.585,71.8203 25.7517,71.487 15,70.5C 14.5078,71.549 14.6744,72.549 15.5,73.5C 13.3886,74.8485 11.5553,74.5152 10,72.5C 7.80383,74.5238 5.9705,76.8571 4.5,79.5C 3.29412,77.5159 3.29412,75.5159 4.5,73.5C 3.16667,72.8333 1.83333,72.1667 0.5,71.5C 4.16667,70.8333 7.83333,70.1667 11.5,69.5C 9.39209,68.0562 7.05875,67.3896 4.5,67.5C 4.5,66.5 4.5,65.5 4.5,64.5C 4.66551,60.4862 4.49885,56.4862 4,52.5C 3.33333,51.8333 2.66667,51.1667 2,50.5C 0.621141,55.036 0.121141,59.7027 0.5,64.5C 0.5,65.5 0.5,66.5 0.5,67.5C 0.166667,67.5 -0.166667,67.5 -0.5,67.5C -0.5,55.5 -0.5,43.5 -0.5,31.5 Z"/></g>
<g><path style="opacity:1" fill="#e6bb42" d="M 93.5,55.5 C 91.3618,55.703 89.6951,56.703 88.5,58.5C 88.1667,58 87.8333,57.5 87.5,57C 89.1831,53.99 90.8498,50.99 92.5,48C 91.9056,47.5357 91.2389,47.369 90.5,47.5C 92.6384,42.9994 94.305,42.8328 95.5,47C 95.2587,50.062 94.5921,52.8954 93.5,55.5 Z"/></g>
<g><path style="opacity:1" fill="#20d3de" d="M 125.5,47.5 C 126.5,47.5 127.5,47.5 128.5,47.5C 128.216,49.4147 128.549,51.0813 129.5,52.5C 129.5,56.1667 129.5,59.8333 129.5,63.5C 128.842,62.6016 128.176,61.6016 127.5,60.5C 126.828,61.9492 126.161,63.2825 125.5,64.5C 125.5,58.8333 125.5,53.1667 125.5,47.5 Z"/></g>
<g><path style="opacity:1" fill="#07fda2" d="M 63.5,47.5 C 64.2674,48.172 64.9341,49.0053 65.5,50C 69.5101,50.5013 73.5101,51.0013 77.5,51.5C 79.4352,52.1495 81.4352,52.4828 83.5,52.5C 83.1667,53.1667 82.8333,53.8333 82.5,54.5C 82.1667,54.5 81.8333,54.5 81.5,54.5C 80.7261,53.8529 79.7261,53.5195 78.5,53.5C 73.4865,54.8337 68.4865,56.167 63.5,57.5C 63.5,58.8333 63.5,60.1667 63.5,61.5C 65.5273,61.3379 67.5273,61.5045 69.5,62C 70.056,62.3826 70.3893,62.8826 70.5,63.5C 64.8236,63.6661 59.1569,63.4994 53.5,63C 52.0842,60.7355 50.0842,59.5688 47.5,59.5C 47.0833,56.9208 47.75,54.7542 49.5,53C 54.1016,51.8776 58.7682,51.3776 63.5,51.5C 63.5,50.1667 63.5,48.8333 63.5,47.5 Z"/></g>
<g><path style="opacity:1" fill="#f0b621" d="M 216.5,44.5 C 219.438,44.2733 221.771,45.2733 223.5,47.5C 223.5,52.8333 223.5,58.1667 223.5,63.5C 223.664,66.1873 223.497,68.854 223,71.5C 222.8,69.6803 221.966,68.347 220.5,67.5C 219.835,65.3021 219.168,62.9688 218.5,60.5C 217.702,60.9569 217.369,61.6236 217.5,62.5C 217.5,62.8333 217.5,63.1667 217.5,63.5C 217.167,63.5 216.833,63.5 216.5,63.5C 216.5,62.1667 216.5,60.8333 216.5,59.5C 215.167,59.5 213.833,59.5 212.5,59.5C 214.308,56.0169 215.974,52.3502 217.5,48.5C 217.043,47.7025 216.376,47.3691 215.5,47.5C 213.098,49.9092 210.431,51.9092 207.5,53.5C 205.883,54.038 204.216,54.3713 202.5,54.5C 200.712,54.7852 199.045,54.4519 197.5,53.5C 199.184,52.8503 200.517,51.8503 201.5,50.5C 206.454,48.545 211.454,46.545 216.5,44.5 Z"/></g>
<g><path style="opacity:1" fill="#18c7d2" d="M 4.5,64.5 C 3.83538,62.6309 3.16871,60.6309 2.5,58.5C 1.83129,60.6309 1.16462,62.6309 0.5,64.5C 0.121141,59.7027 0.621141,55.036 2,50.5C 2.66667,51.1667 3.33333,51.8333 4,52.5C 4.49885,56.4862 4.66551,60.4862 4.5,64.5 Z"/></g>
<g><path style="opacity:1" fill="#2cfc1a" d="M 111.5,39.5 C 111.281,40.675 111.614,41.675 112.5,42.5C 114.491,41.5731 116.491,41.4064 118.5,42C 119.658,38.572 120.658,35.072 121.5,31.5C 122.345,37.0898 123.678,42.4231 125.5,47.5C 125.5,53.1667 125.5,58.8333 125.5,64.5C 124.691,66.0133 124.524,67.6799 125,69.5C 123.981,68.3128 122.814,67.3128 121.5,66.5C 120.614,67.325 120.281,68.325 120.5,69.5C 124.135,69.6556 124.468,70.8223 121.5,73C 124.468,75.1777 124.135,76.3444 120.5,76.5C 120.702,78.9892 120.202,81.3225 119,83.5C 117.812,82.4366 117.312,81.1033 117.5,79.5C 116.5,79.5 115.5,79.5 114.5,79.5C 114.5,78.5 114.5,77.5 114.5,76.5C 113.5,76.5 112.5,76.5 111.5,76.5C 111.719,75.325 111.386,74.325 110.5,73.5C 105.518,70.8614 101.184,67.528 97.5,63.5C 96.0689,63.1193 95.2355,62.1193 95,60.5C 94.6012,60.7284 94.4346,61.0618 94.5,61.5C 93.8333,61.5 93.1667,61.5 92.5,61.5C 93.1495,59.5648 93.4828,57.5648 93.5,55.5C 94.5921,52.8954 95.2587,50.062 95.5,47C 94.305,42.8328 92.6384,42.9994 90.5,47.5C 88.4451,49.5547 86.1117,51.2213 83.5,52.5C 81.4352,52.4828 79.4352,52.1495 77.5,51.5C 76.6473,49.1073 74.9806,47.774 72.5,47.5C 72.6168,45.5165 71.9501,43.8498 70.5,42.5C 68.2418,41.201 65.9084,40.201 63.5,39.5C 63.5,36.8333 63.5,34.1667 63.5,31.5C 65.1992,31.6602 66.8659,31.4935 68.5,31C 70.8247,27.4233 74.158,25.5899 78.5,25.5C 83.83,28.0048 89.4967,29.0048 95.5,28.5C 95.5,29.5 95.5,30.5 95.5,31.5C 99.7435,32.97 103.41,35.47 106.5,39C 108.134,39.4935 109.801,39.6602 111.5,39.5 Z"/></g>
<g><path style="opacity:1" fill="#1bf1de" d="M 81.5,54.5 C 79.8302,57.1748 78.1635,59.8414 76.5,62.5C 76.5654,62.0618 76.3988,61.7284 76,61.5C 74.5557,63.1554 72.7224,63.822 70.5,63.5C 70.3893,62.8826 70.056,62.3826 69.5,62C 67.5273,61.5045 65.5273,61.3379 63.5,61.5C 63.5,60.1667 63.5,58.8333 63.5,57.5C 68.4865,56.167 73.4865,54.8337 78.5,53.5C 79.7261,53.5195 80.7261,53.8529 81.5,54.5 Z"/></g>
<g><path style="opacity:1" fill="#1a52f2" d="M 129.5,63.5 C 129.5,64.8333 129.5,66.1667 129.5,67.5C 127.027,67.9118 125.694,66.9118 125.5,64.5C 126.161,63.2825 126.828,61.9492 127.5,60.5C 128.176,61.6016 128.842,62.6016 129.5,63.5 Z"/></g>
<g><path style="opacity:1" fill="#aafb05" d="M 201.5,50.5 C 200.517,51.8503 199.184,52.8503 197.5,53.5C 199.045,54.4519 200.712,54.7852 202.5,54.5C 197.552,56.5058 192.552,58.6725 187.5,61C 182.546,66.0733 176.546,68.0733 169.5,67C 170.337,65.9887 170.67,64.8221 170.5,63.5C 172.167,63.5 173.833,63.5 175.5,63.5C 175.5,62.5 175.5,61.5 175.5,60.5C 183.957,56.733 192.623,53.3997 201.5,50.5 Z"/></g>
<g><path style="opacity:1" fill="#1d53d2" d="M 4.5,64.5 C 4.5,65.5 4.5,66.5 4.5,67.5C 3.16667,67.5 1.83333,67.5 0.5,67.5C 0.5,66.5 0.5,65.5 0.5,64.5C 1.16462,62.6309 1.83129,60.6309 2.5,58.5C 3.16871,60.6309 3.83538,62.6309 4.5,64.5 Z"/></g>
<g><path style="opacity:1" fill="#0afc66" d="M 73.5,67.5 C 66.2749,80.2763 58.7749,92.943 51,105.5C 50.1841,106.823 49.0174,107.489 47.5,107.5C 44.9955,109.144 42.3289,110.644 39.5,112C 40.7051,113.376 42.0384,114.542 43.5,115.5C 43.5674,116.959 43.2341,118.292 42.5,119.5C 42.1667,119.5 41.8333,119.5 41.5,119.5C 36.0452,117.405 30.3785,115.905 24.5,115C 23.8333,114 23.1667,113 22.5,112C 20.1902,111.503 17.8568,111.337 15.5,111.5C 15.5,109.833 15.5,108.167 15.5,106.5C 10.0182,105.669 4.68486,104.335 -0.5,102.5C -0.5,90.8333 -0.5,79.1667 -0.5,67.5C -0.166667,67.5 0.166667,67.5 0.5,67.5C 1.83333,67.5 3.16667,67.5 4.5,67.5C 7.05875,67.3896 9.39209,68.0562 11.5,69.5C 7.83333,70.1667 4.16667,70.8333 0.5,71.5C 1.83333,72.1667 3.16667,72.8333 4.5,73.5C 3.29412,75.5159 3.29412,77.5159 4.5,79.5C 5.9705,76.8571 7.80383,74.5238 10,72.5C 11.5553,74.5152 13.3886,74.8485 15.5,73.5C 14.6744,72.549 14.5078,71.549 15,70.5C 25.7517,71.487 36.585,71.8203 47.5,71.5C 47.5,70.5 47.5,69.5 47.5,68.5C 54.8216,68.9294 61.9883,68.2627 69,66.5C 69.3333,67.1667 69.6667,67.8333 70,68.5C 71.0113,67.6634 72.1779,67.33 73.5,67.5 Z"/></g>
<g><path style="opacity:1" fill="#18f6b7" d="M 206.5,55.5 C 201.987,63.8725 196.987,71.8725 191.5,79.5C 191.179,77.9519 190.179,77.2852 188.5,77.5C 188.329,74.2027 188.995,73.8694 190.5,76.5C 191.452,74.9547 191.785,73.288 191.5,71.5C 188.14,70.7904 186.307,72.1238 186,75.5C 181.733,76.939 178.233,75.939 175.5,72.5C 184.862,65.6403 195.195,59.9737 206.5,55.5 Z"/></g>
<g><path style="opacity:1" fill="#1bf5e0" d="M 92.5,61.5 C 93.1667,61.5 93.8333,61.5 94.5,61.5C 94.3094,65.1055 95.4761,68.1055 98,70.5C 98.498,73.4816 98.6646,76.4816 98.5,79.5C 97.5,79.5 96.5,79.5 95.5,79.5C 95.8808,77.0582 95.2141,76.3915 93.5,77.5C 90.7833,75.7023 88.7833,73.3689 87.5,70.5C 88.9166,67.331 90.5832,64.331 92.5,61.5 Z"/></g>
<g><path style="opacity:1" fill="#0bfd99" d="M 97.5,63.5 C 97.3505,64.552 97.5172,65.552 98,66.5C 101.563,69.2755 104.896,72.2755 108,75.5C 108.49,76.7932 108.657,78.1266 108.5,79.5C 109.5,79.5 110.5,79.5 111.5,79.5C 111.334,83.5138 111.501,87.5138 112,91.5C 112.471,89.7536 113.138,88.087 114,86.5C 116.437,88.9729 117.604,91.9729 117.5,95.5C 116.5,95.5 115.5,95.5 114.5,95.5C 113.736,97.7397 112.902,100.073 112,102.5C 111.612,101.572 110.945,100.905 110,100.5C 108.211,101.409 106.377,101.576 104.5,101C 101.018,94.8688 96.8517,89.3688 92,84.5C 92.0041,80.8248 90.6708,77.8248 88,75.5C 87.5357,76.0944 87.369,76.7611 87.5,77.5C 86.88,79.9767 85.88,79.9767 84.5,77.5C 83.8165,77.8627 83.1499,78.1961 82.5,78.5C 83.3833,75.2957 85.0499,72.6291 87.5,70.5C 88.7833,73.3689 90.7833,75.7023 93.5,77.5C 95.2141,76.3915 95.8808,77.0582 95.5,79.5C 96.5,79.5 97.5,79.5 98.5,79.5C 98.6646,76.4816 98.498,73.4816 98,70.5C 95.4761,68.1055 94.3094,65.1055 94.5,61.5C 94.4346,61.0618 94.6012,60.7284 95,60.5C 95.2355,62.1193 96.0689,63.1193 97.5,63.5 Z"/></g>
<g><path style="opacity:1" fill="#1ffd1d" d="M 216.5,44.5 C 211.454,46.545 206.454,48.545 201.5,50.5C 192.623,53.3997 183.957,56.733 175.5,60.5C 175.5,61.5 175.5,62.5 175.5,63.5C 173.833,63.5 172.167,63.5 170.5,63.5C 170.67,64.8221 170.337,65.9887 169.5,67C 176.546,68.0733 182.546,66.0733 187.5,61C 192.552,58.6725 197.552,56.5058 202.5,54.5C 204.216,54.3713 205.883,54.038 207.5,53.5C 207.672,54.4916 207.338,55.1583 206.5,55.5C 195.195,59.9737 184.862,65.6403 175.5,72.5C 170.698,73.1248 166.698,75.2915 163.5,79C 162.207,79.49 160.873,79.6567 159.5,79.5C 159.5,80.5 159.5,81.5 159.5,82.5C 158.022,82.238 156.689,82.5713 155.5,83.5C 154.395,85.6114 152.729,86.9447 150.5,87.5C 147.271,89.7435 143.604,91.0768 139.5,91.5C 137.82,94.575 135.154,96.075 131.5,96C 130.667,98.1667 129.167,99.6667 127,100.5C 125.54,93.6767 125.04,86.6767 125.5,79.5C 124.448,79.6495 123.448,79.4828 122.5,79C 124.277,76.848 125.777,77.0147 127,79.5C 128.204,78.1414 129.704,77.1414 131.5,76.5C 129.328,75.7952 127.328,74.7952 125.5,73.5C 128.704,72.7964 131.871,72.1298 135,71.5C 136.085,72.2931 137.252,72.9598 138.5,73.5C 139.705,71.8624 141.038,71.5291 142.5,72.5C 145.146,70.432 148.146,69.0987 151.5,68.5C 152.605,67.1076 153.939,65.941 155.5,65C 160.116,64.6877 163.783,62.6877 166.5,59C 171.782,57.4617 177.115,56.1283 182.5,55C 184.167,54 185.5,52.6667 186.5,51C 188.134,50.5065 189.801,50.3398 191.5,50.5C 191.281,49.325 191.614,48.325 192.5,47.5C 196.693,49.0278 200.36,48.1945 203.5,45C 206.84,44.5466 210.174,44.0466 213.5,43.5C 214.726,43.5195 215.726,43.8529 216.5,44.5 Z"/></g>
<g><path style="opacity:1" fill="#2ef3cf" d="M 216.5,63.5 C 216.833,63.5 217.167,63.5 217.5,63.5C 217.747,70.8876 217.247,78.221 216,85.5C 215.667,84.8333 215.333,84.1667 215,83.5C 214.581,84.6721 213.915,85.6721 213,86.5C 212.316,83.62 212.483,80.7866 213.5,78C 213.167,77.5 212.833,77 212.5,76.5C 211.614,77.325 211.281,78.325 211.5,79.5C 209.821,79.7148 208.821,79.0481 208.5,77.5C 210.775,72.5709 213.441,67.9042 216.5,63.5 Z"/></g>
<g><path style="opacity:1" fill="#f38210" d="M 215.5,47.5 C 216.376,47.3691 217.043,47.7025 217.5,48.5C 215.974,52.3502 214.308,56.0169 212.5,59.5C 213.833,59.5 215.167,59.5 216.5,59.5C 216.5,60.8333 216.5,62.1667 216.5,63.5C 213.441,67.9042 210.775,72.5709 208.5,77.5C 203.518,85.4545 198.518,93.4545 193.5,101.5C 192.138,104.702 190.304,107.702 188,110.5C 187.501,114.152 187.335,117.818 187.5,121.5C 187.768,123.099 187.434,124.432 186.5,125.5C 184.967,124.569 183.3,123.902 181.5,123.5C 180.287,123.747 179.62,124.414 179.5,125.5C 178.85,125.804 178.183,126.137 177.5,126.5C 175.315,121.548 173.315,121.881 171.5,127.5C 171.167,127.5 170.833,127.5 170.5,127.5C 168.076,123.789 169.076,120.956 173.5,119C 172.692,118.692 172.025,118.192 171.5,117.5C 172.95,116.15 173.617,114.484 173.5,112.5C 176.717,110.798 179.55,108.464 182,105.5C 181.405,103.65 180.905,101.65 180.5,99.5C 181.708,98.7659 183.041,98.4326 184.5,98.5C 184.972,95.1847 186.805,92.8514 190,91.5C 191.029,88.6096 192.195,85.7763 193.5,83C 199.88,75.7119 204.88,67.5452 208.5,58.5C 211.101,54.9556 213.434,51.2889 215.5,47.5 Z"/></g>
<g><path style="opacity:1" fill="#9d4d0c" d="M 215.5,47.5 C 213.434,51.2889 211.101,54.9556 208.5,58.5C 204.88,67.5452 199.88,75.7119 193.5,83C 192.195,85.7763 191.029,88.6096 190,91.5C 186.805,92.8514 184.972,95.1847 184.5,98.5C 183.041,98.4326 181.708,98.7659 180.5,99.5C 184.167,92.8333 187.833,86.1667 191.5,79.5C 196.987,71.8725 201.987,63.8725 206.5,55.5C 207.338,55.1583 207.672,54.4916 207.5,53.5C 210.431,51.9092 213.098,49.9092 215.5,47.5 Z"/></g>
<g><path style="opacity:1" fill="#ed830d" d="M 90.5,47.5 C 91.2389,47.369 91.9056,47.5357 92.5,48C 90.8498,50.99 89.1831,53.99 87.5,57C 87.8333,57.5 88.1667,58 88.5,58.5C 89.6951,56.703 91.3618,55.703 93.5,55.5C 93.4828,57.5648 93.1495,59.5648 92.5,61.5C 90.5832,64.331 88.9166,67.331 87.5,70.5C 85.0499,72.6291 83.3833,75.2957 82.5,78.5C 75.6623,88.9341 68.9956,99.6008 62.5,110.5C 61.5059,115.456 61.1725,120.456 61.5,125.5C 59.7231,125.214 58.0564,124.547 56.5,123.5C 54.0847,123.719 53.0847,125.052 53.5,127.5C 52.8333,127.5 52.1667,127.5 51.5,127.5C 51.1667,127.5 50.8333,127.5 50.5,127.5C 50.8333,125.5 51.1667,123.5 51.5,121.5C 47.8333,121.833 45.8333,123.833 45.5,127.5C 43.7872,126.695 42.1206,125.695 40.5,124.5C 41.2458,123.264 41.5792,121.93 41.5,120.5C 41.5,120.167 41.5,119.833 41.5,119.5C 41.8333,119.5 42.1667,119.5 42.5,119.5C 43.4959,119.414 44.3292,119.748 45,120.5C 45.4195,116.246 47.5861,113.246 51.5,111.5C 52.5341,114.057 51.5341,115.391 48.5,115.5C 48.5,116.5 48.5,117.5 48.5,118.5C 49.552,118.649 50.552,118.483 51.5,118C 52.5418,116.082 53.7085,114.249 55,112.5C 55.3114,111.258 54.8114,110.258 53.5,109.5C 55.9799,104.027 59.3132,99.194 63.5,95C 66.0279,90.4905 67.6946,85.6572 68.5,80.5C 69.7598,79.6184 70.9264,78.6184 72,77.5C 72.2494,74.8232 73.2494,72.4899 75,70.5C 76.0113,69.6634 77.1779,69.33 78.5,69.5C 79.5886,64.3699 80.922,59.3699 82.5,54.5C 82.8333,53.8333 83.1667,53.1667 83.5,52.5C 86.1117,51.2213 88.4451,49.5547 90.5,47.5 Z"/></g>
<g><path style="opacity:1" fill="#0bfc63" d="M 87.5,77.5 C 89.8992,83.0576 91.5659,89.0576 92.5,95.5C 93.5,95.5 94.5,95.5 95.5,95.5C 95.5,100.833 95.5,106.167 95.5,111.5C 96.5,111.5 97.5,111.5 98.5,111.5C 98.9564,116.865 99.623,122.199 100.5,127.5C 104.226,127.177 107.893,127.511 111.5,128.5C 106.015,129.167 100.681,129.833 95.5,130.5C 95.5,137.833 95.5,145.167 95.5,152.5C 90.8333,151.167 87.8333,148.167 86.5,143.5C 84.1667,143.5 81.8333,143.5 79.5,143.5C 79.6602,141.801 79.4935,140.134 79,138.5C 75.6547,141.288 72.488,141.121 69.5,138C 67.5273,137.505 65.5273,137.338 63.5,137.5C 63.6495,136.448 63.4828,135.448 63,134.5C 61.9887,135.337 60.8221,135.67 59.5,135.5C 59.7373,134.209 59.404,133.209 58.5,132.5C 57.3285,131.655 55.9952,130.989 54.5,130.5C 54.7373,129.209 54.404,128.209 53.5,127.5C 53.0847,125.052 54.0847,123.719 56.5,123.5C 58.0564,124.547 59.7231,125.214 61.5,125.5C 61.1725,120.456 61.5059,115.456 62.5,110.5C 68.9956,99.6008 75.6623,88.9341 82.5,78.5C 83.1499,78.1961 83.8165,77.8627 84.5,77.5C 85.88,79.9767 86.88,79.9767 87.5,77.5 Z"/></g>
<g><path style="opacity:1" fill="#07fc92" d="M 191.5,79.5 C 187.833,86.1667 184.167,92.8333 180.5,99.5C 178.833,101.5 177.167,103.5 175.5,105.5C 170.502,103.585 165.668,101.251 161,98.5C 157.749,99.0683 154.583,99.9016 151.5,101C 148.844,103.66 145.844,105.826 142.5,107.5C 140.556,108.189 138.556,108.689 136.5,109C 133.99,111.393 131.323,113.56 128.5,115.5C 127.526,113.257 127.192,110.924 127.5,108.5C 127.5,106.833 127.5,105.167 127.5,103.5C 132.977,103.689 136.977,101.355 139.5,96.5C 140.689,95.5713 142.022,95.238 143.5,95.5C 143.281,94.325 143.614,93.325 144.5,92.5C 147.129,91.5333 149.129,89.8666 150.5,87.5C 152.729,86.9447 154.395,85.6114 155.5,83.5C 156.689,82.5713 158.022,82.238 159.5,82.5C 159.5,81.5 159.5,80.5 159.5,79.5C 160.873,79.6567 162.207,79.49 163.5,79C 166.698,75.2915 170.698,73.1248 175.5,72.5C 178.233,75.939 181.733,76.939 186,75.5C 186.307,72.1238 188.14,70.7904 191.5,71.5C 191.785,73.288 191.452,74.9547 190.5,76.5C 188.995,73.8694 188.329,74.2027 188.5,77.5C 190.179,77.2852 191.179,77.9519 191.5,79.5 Z"/></g>
<g><path style="opacity:1" fill="#08fa82" d="M 114.5,95.5 C 114.5,98.1667 114.5,100.833 114.5,103.5C 115.833,103.5 117.167,103.5 118.5,103.5C 118.5,100.833 118.5,98.1667 118.5,95.5C 119.833,95.5 121.167,95.5 122.5,95.5C 122.633,100.973 121.966,106.307 120.5,111.5C 123.438,111.727 125.771,110.727 127.5,108.5C 127.192,110.924 127.526,113.257 128.5,115.5C 131.323,113.56 133.99,111.393 136.5,109C 138.556,108.689 140.556,108.189 142.5,107.5C 145.844,105.826 148.844,103.66 151.5,101C 154.583,99.9016 157.749,99.0683 161,98.5C 165.668,101.251 170.502,103.585 175.5,105.5C 175.672,106.492 175.338,107.158 174.5,107.5C 171.34,108.443 168.34,109.777 165.5,111.5C 165.44,110.957 165.107,110.624 164.5,110.5C 160.205,112.267 155.872,113.6 151.5,114.5C 151.714,116.144 151.38,117.644 150.5,119C 142.586,118.801 135.92,121.467 130.5,127C 128.866,127.494 127.199,127.66 125.5,127.5C 125.351,128.552 125.517,129.552 126,130.5C 126.333,130.167 126.667,129.833 127,129.5C 127.498,132.482 127.665,135.482 127.5,138.5C 132.654,136.562 137.987,135.229 143.5,134.5C 147.667,132.701 151.334,130.367 154.5,127.5C 153.087,130.419 151.087,132.919 148.5,135C 145.464,136.412 142.464,137.912 139.5,139.5C 138.194,140.912 137.36,142.579 137,144.5C 135.829,145.893 134.329,146.727 132.5,147C 131.695,148.972 130.361,150.472 128.5,151.5C 127.749,150.624 127.249,149.624 127,148.5C 126.19,152.358 126.357,156.024 127.5,159.5C 126.78,162.958 126.113,166.458 125.5,170C 125.833,171.833 126.167,173.667 126.5,175.5C 127.386,174.675 127.719,173.675 127.5,172.5C 128.5,172.5 129.5,172.5 130.5,172.5C 132.003,169.476 134.17,166.81 137,164.5C 137.862,162.913 138.529,161.246 139,159.5C 140.11,157.963 141.61,157.297 143.5,157.5C 142.943,161.421 141.11,164.755 138,167.5C 135.478,173.2 131.978,178.2 127.5,182.5C 126.504,188.463 126.171,194.463 126.5,200.5C 123.833,200.5 121.167,200.5 118.5,200.5C 118.5,200.167 118.5,199.833 118.5,199.5C 120.167,199.5 121.833,199.5 123.5,199.5C 123.5,176.5 123.5,153.5 123.5,130.5C 114.167,130.5 104.833,130.5 95.5,130.5C 100.681,129.833 106.015,129.167 111.5,128.5C 107.893,127.511 104.226,127.177 100.5,127.5C 99.623,122.199 98.9564,116.865 98.5,111.5C 97.5,111.5 96.5,111.5 95.5,111.5C 95.5,106.167 95.5,100.833 95.5,95.5C 94.5,95.5 93.5,95.5 92.5,95.5C 91.5659,89.0576 89.8992,83.0576 87.5,77.5C 87.369,76.7611 87.5357,76.0944 88,75.5C 90.6708,77.8248 92.0041,80.8248 92,84.5C 96.8517,89.3688 101.018,94.8688 104.5,101C 106.377,101.576 108.211,101.409 110,100.5C 110.945,100.905 111.612,101.572 112,102.5C 112.902,100.073 113.736,97.7397 114.5,95.5 Z"/></g>
<g><path style="opacity:1" fill="#954b11" d="M 180.5,99.5 C 180.905,101.65 181.405,103.65 182,105.5C 179.55,108.464 176.717,110.798 173.5,112.5C 173.617,114.484 172.95,116.15 171.5,117.5C 172.025,118.192 172.692,118.692 173.5,119C 169.076,120.956 168.076,123.789 170.5,127.5C 168.883,126.962 167.216,126.629 165.5,126.5C 165.48,124.857 166.147,123.524 167.5,122.5C 167.043,121.702 166.376,121.369 165.5,121.5C 166.167,120.5 166.833,119.5 167.5,118.5C 169.048,118.179 169.715,117.179 169.5,115.5C 171.664,113.178 173.331,110.511 174.5,107.5C 175.338,107.158 175.672,106.492 175.5,105.5C 177.167,103.5 178.833,101.5 180.5,99.5 Z"/></g>
<g><path style="opacity:1" fill="#ef7919" d="M 47.5,107.5 C 47.6107,108.117 47.944,108.617 48.5,109C 46.9697,111.352 45.3031,113.519 43.5,115.5C 42.0384,114.542 40.7051,113.376 39.5,112C 42.3289,110.644 44.9955,109.144 47.5,107.5 Z"/></g>
<g><path style="opacity:1" fill="#f2761a" d="M 174.5,107.5 C 173.331,110.511 171.664,113.178 169.5,115.5C 167.167,115.167 165.833,113.833 165.5,111.5C 168.34,109.777 171.34,108.443 174.5,107.5 Z"/></g>
<g><path style="opacity:1" fill="#ab5709" d="M 81.5,54.5 C 81.8333,54.5 82.1667,54.5 82.5,54.5C 80.922,59.3699 79.5886,64.3699 78.5,69.5C 77.1779,69.33 76.0113,69.6634 75,70.5C 73.2494,72.4899 72.2494,74.8232 72,77.5C 70.9264,78.6184 69.7598,79.6184 68.5,80.5C 67.6946,85.6572 66.0279,90.4905 63.5,95C 59.3132,99.194 55.9799,104.027 53.5,109.5C 54.8114,110.258 55.3114,111.258 55,112.5C 53.7085,114.249 52.5418,116.082 51.5,118C 50.552,118.483 49.552,118.649 48.5,118.5C 48.5,117.5 48.5,116.5 48.5,115.5C 51.5341,115.391 52.5341,114.057 51.5,111.5C 47.5861,113.246 45.4195,116.246 45,120.5C 44.3292,119.748 43.4959,119.414 42.5,119.5C 43.2341,118.292 43.5674,116.959 43.5,115.5C 45.3031,113.519 46.9697,111.352 48.5,109C 47.944,108.617 47.6107,108.117 47.5,107.5C 49.0174,107.489 50.1841,106.823 51,105.5C 58.7749,92.943 66.2749,80.2763 73.5,67.5C 74.7368,66.0351 75.7368,64.3684 76.5,62.5C 78.1635,59.8414 79.8302,57.1748 81.5,54.5 Z"/></g>
<g><path style="opacity:1" fill="#2beca9" d="M 165.5,111.5 C 165.833,113.833 167.167,115.167 169.5,115.5C 169.715,117.179 169.048,118.179 167.5,118.5C 157.621,120.029 156.955,117.696 165.5,111.5 Z"/></g>
<g><path style="opacity:1" fill="#0efc9f" d="M 217.5,62.5 C 218.788,76.0264 218.788,89.6931 217.5,103.5C 216.768,104.808 215.934,106.142 215,107.5C 214.667,112.833 214.333,118.167 214,123.5C 212.427,124.086 210.927,125.253 209.5,127C 211.418,128.77 211.918,130.937 211,133.5C 209.715,136.804 207.548,137.47 204.5,135.5C 204.579,131.798 204.246,128.132 203.5,124.5C 205.457,119.06 207.124,113.56 208.5,108C 208.333,106.833 208.167,105.667 208,104.5C 207.667,104.833 207.333,105.167 207,105.5C 206.29,104.027 205.124,103.36 203.5,103.5C 204.363,100.626 205.697,97.9591 207.5,95.5C 206.602,93.3736 205.435,91.3736 204,89.5C 201.811,91.7738 200.978,94.2738 201.5,97C 199.941,99.3031 198.274,101.47 196.5,103.5C 195.735,102.388 194.735,101.721 193.5,101.5C 198.518,93.4545 203.518,85.4545 208.5,77.5C 208.821,79.0481 209.821,79.7148 211.5,79.5C 211.281,78.325 211.614,77.325 212.5,76.5C 212.833,77 213.167,77.5 213.5,78C 212.483,80.7866 212.316,83.62 213,86.5C 213.915,85.6721 214.581,84.6721 215,83.5C 215.333,84.1667 215.667,84.8333 216,85.5C 217.247,78.221 217.747,70.8876 217.5,63.5C 217.5,63.1667 217.5,62.8333 217.5,62.5 Z"/></g>
<g><path style="opacity:1" fill="#e9c343" d="M 50.5,127.5 C 50.1788,129.048 49.1788,129.715 47.5,129.5C 47.6567,128.127 47.49,126.793 47,125.5C 46.7216,126.416 46.2216,127.082 45.5,127.5C 45.8333,123.833 47.8333,121.833 51.5,121.5C 51.1667,123.5 50.8333,125.5 50.5,127.5 Z"/></g>
<g><path style="opacity:1" fill="#1aebd4" d="M 40.5,120.5 C 38.7303,125.434 36.7303,130.267 34.5,135C 35.7766,135.127 36.9433,134.627 38,133.5C 41.8199,138.285 45.4865,138.285 49,133.5C 50.1223,131.58 50.9556,129.58 51.5,127.5C 52.1667,127.5 52.8333,127.5 53.5,127.5C 54.404,128.209 54.7373,129.209 54.5,130.5C 54.5,132.167 54.5,133.833 54.5,135.5C 52.3352,135.116 50.6685,135.783 49.5,137.5C 51.4244,137.567 53.4244,137.9 55.5,138.5C 56.5896,139.609 56.5896,140.609 55.5,141.5C 53.8333,140.167 52.1667,140.167 50.5,141.5C 48.5679,140.855 47.4012,139.521 47,137.5C 45.414,138.376 43.914,139.376 42.5,140.5C 40.1667,139.167 37.8333,139.167 35.5,140.5C 34.0744,135.086 32.7411,129.586 31.5,124C 32.1021,122.437 32.9354,122.604 34,124.5C 34.49,123.207 34.6567,121.873 34.5,120.5C 36.3093,119.709 38.3093,119.709 40.5,120.5 Z"/></g>
<g><path style="opacity:1" fill="#e7bc48" d="M 179.5,125.5 C 179.5,125.833 179.5,126.167 179.5,126.5C 179.5,126.833 179.5,127.167 179.5,127.5C 179.167,127.5 178.833,127.5 178.5,127.5C 178.167,127.5 177.833,127.5 177.5,127.5C 176.069,127.881 175.236,128.881 175,130.5C 173.887,129.695 172.721,129.028 171.5,128.5C 171.5,128.167 171.5,127.833 171.5,127.5C 173.315,121.881 175.315,121.548 177.5,126.5C 178.183,126.137 178.85,125.804 179.5,125.5 Z"/></g>
<g><path style="opacity:1" fill="#19fd62" d="M 165.5,111.5 C 156.955,117.696 157.621,120.029 167.5,118.5C 166.833,119.5 166.167,120.5 165.5,121.5C 164.833,121.5 164.5,121.833 164.5,122.5C 162.712,123.36 161.045,124.36 159.5,125.5C 157.833,126.167 156.167,126.833 154.5,127.5C 151.334,130.367 147.667,132.701 143.5,134.5C 137.987,135.229 132.654,136.562 127.5,138.5C 127.665,135.482 127.498,132.482 127,129.5C 126.667,129.833 126.333,130.167 126,130.5C 125.517,129.552 125.351,128.552 125.5,127.5C 127.199,127.66 128.866,127.494 130.5,127C 135.92,121.467 142.586,118.801 150.5,119C 151.38,117.644 151.714,116.144 151.5,114.5C 155.872,113.6 160.205,112.267 164.5,110.5C 165.107,110.624 165.44,110.957 165.5,111.5 Z"/></g>
<g><path style="opacity:1" fill="#46eab6" d="M 186.5,125.5 C 185.255,128.348 184.255,131.348 183.5,134.5C 182.833,132.167 182.167,129.833 181.5,127.5C 180.817,127.137 180.15,126.804 179.5,126.5C 179.5,126.167 179.5,125.833 179.5,125.5C 179.62,124.414 180.287,123.747 181.5,123.5C 183.3,123.902 184.967,124.569 186.5,125.5 Z"/></g>
<g><path style="opacity:1" fill="#19fe15" d="M 223.5,47.5 C 224.931,47.8807 225.764,48.8807 226,50.5C 226.361,56.596 227.195,62.596 228.5,68.5C 231.033,93.7747 231.866,119.108 231,144.5C 229.667,151.167 228.333,157.833 227,164.5C 226.167,165.5 225.333,166.5 224.5,167.5C 223.52,164.914 223.187,162.247 223.5,159.5C 221.833,159.5 220.167,159.5 218.5,159.5C 217.614,143.519 217.281,127.519 217.5,111.5C 217.5,108.833 217.5,106.167 217.5,103.5C 218.788,89.6931 218.788,76.0264 217.5,62.5C 217.369,61.6236 217.702,60.9569 218.5,60.5C 219.168,62.9688 219.835,65.3021 220.5,67.5C 220.334,76.8393 220.5,86.1726 221,95.5C 221.803,98.2442 222.803,100.911 224,103.5C 224.333,103.167 224.667,102.833 225,102.5C 227.296,89.2461 226.796,76.2461 223.5,63.5C 223.5,58.1667 223.5,52.8333 223.5,47.5 Z"/></g>
<g><path style="opacity:1" fill="#a5fb04" d="M 223.5,63.5 C 226.796,76.2461 227.296,89.2461 225,102.5C 224.667,102.833 224.333,103.167 224,103.5C 222.803,100.911 221.803,98.2442 221,95.5C 220.5,86.1726 220.334,76.8393 220.5,67.5C 221.966,68.347 222.8,69.6803 223,71.5C 223.497,68.854 223.664,66.1873 223.5,63.5 Z"/></g>
<g><path style="opacity:1" fill="#1419c0" d="M 165.5,121.5 C 166.376,121.369 167.043,121.702 167.5,122.5C 166.147,123.524 165.48,124.857 165.5,126.5C 167.216,126.629 168.883,126.962 170.5,127.5C 170.833,127.5 171.167,127.5 171.5,127.5C 171.5,127.833 171.5,128.167 171.5,128.5C 169.5,131.167 167.5,133.833 165.5,136.5C 164.85,136.804 164.183,137.137 163.5,137.5C 162.513,134.232 162.18,130.898 162.5,127.5C 163.441,125.95 164.107,124.284 164.5,122.5C 164.5,121.833 164.833,121.5 165.5,121.5 Z"/></g>
<g><path style="opacity:1" fill="#1c0d63" d="M 177.5,127.5 C 177.771,129.38 177.104,130.713 175.5,131.5C 172.982,132.924 170.649,134.591 168.5,136.5C 167.348,137.625 166.348,137.625 165.5,136.5C 167.5,133.833 169.5,131.167 171.5,128.5C 172.721,129.028 173.887,129.695 175,130.5C 175.236,128.881 176.069,127.881 177.5,127.5 Z"/></g>
<g><path style="opacity:1" fill="#0fc6f4" d="M 164.5,122.5 C 164.107,124.284 163.441,125.95 162.5,127.5C 161.355,131.311 161.188,135.311 162,139.5C 162.335,142.19 163.501,142.857 165.5,141.5C 165.672,142.492 165.338,143.158 164.5,143.5C 163.171,146.48 160.837,147.813 157.5,147.5C 158.799,143.63 159.466,139.63 159.5,135.5C 157.801,135.66 156.134,135.494 154.5,135C 155.252,134.329 155.586,133.496 155.5,132.5C 156.58,130.004 157.914,127.67 159.5,125.5C 161.045,124.36 162.712,123.36 164.5,122.5 Z"/></g>
<g><path style="opacity:1" fill="#2d8eba" d="M 40.5,120.5 C 40.8333,120.5 41.1667,120.5 41.5,120.5C 41.5792,121.93 41.2458,123.264 40.5,124.5C 42.1206,125.695 43.7872,126.695 45.5,127.5C 46.2216,127.082 46.7216,126.416 47,125.5C 47.49,126.793 47.6567,128.127 47.5,129.5C 49.1788,129.715 50.1788,129.048 50.5,127.5C 50.8333,127.5 51.1667,127.5 51.5,127.5C 50.9556,129.58 50.1223,131.58 49,133.5C 45.4865,138.285 41.8199,138.285 38,133.5C 36.9433,134.627 35.7766,135.127 34.5,135C 36.7303,130.267 38.7303,125.434 40.5,120.5 Z"/></g>
<g><path style="opacity:1" fill="#0d100f" d="M 95.5,130.5 C 104.833,130.5 114.167,130.5 123.5,130.5C 123.5,153.5 123.5,176.5 123.5,199.5C 121.833,199.5 120.167,199.5 118.5,199.5C 110.833,199.5 103.167,199.5 95.5,199.5C 95.5,183.833 95.5,168.167 95.5,152.5C 95.5,145.167 95.5,137.833 95.5,130.5 Z"/></g>
<g><path style="opacity:1" fill="#0c2bf2" d="M 175.5,131.5 C 174.833,134.833 172.833,136.833 169.5,137.5C 168.833,137.5 168.5,137.167 168.5,136.5C 170.649,134.591 172.982,132.924 175.5,131.5 Z"/></g>
<g><path style="opacity:1" fill="#1172f4" d="M 162.5,127.5 C 162.18,130.898 162.513,134.232 163.5,137.5C 164.183,137.137 164.85,136.804 165.5,136.5C 166.348,137.625 167.348,137.625 168.5,136.5C 168.5,137.167 168.833,137.5 169.5,137.5C 168.473,139.194 167.139,140.527 165.5,141.5C 163.501,142.857 162.335,142.19 162,139.5C 161.188,135.311 161.355,131.311 162.5,127.5 Z"/></g>
<g><path style="opacity:1" fill="#18d6ef" d="M 177.5,127.5 C 177.833,127.5 178.167,127.5 178.5,127.5C 178.42,133.125 177.42,138.458 175.5,143.5C 173.687,145.053 171.853,146.72 170,148.5C 169.503,146.19 169.337,143.857 169.5,141.5C 168.167,141.5 166.833,141.5 165.5,141.5C 167.139,140.527 168.473,139.194 169.5,137.5C 172.833,136.833 174.833,134.833 175.5,131.5C 177.104,130.713 177.771,129.38 177.5,127.5 Z"/></g>
<g><path style="opacity:1" fill="#0dfcc4" d="M 159.5,125.5 C 157.914,127.67 156.58,130.004 155.5,132.5C 154.07,132.421 152.736,132.754 151.5,133.5C 150.421,135.543 148.754,136.876 146.5,137.5C 145.028,140.293 145.694,142.293 148.5,143.5C 143.784,148.137 138.451,151.971 132.5,155C 131.776,157.67 130.109,159.17 127.5,159.5C 126.357,156.024 126.19,152.358 127,148.5C 127.249,149.624 127.749,150.624 128.5,151.5C 130.361,150.472 131.695,148.972 132.5,147C 134.329,146.727 135.829,145.893 137,144.5C 137.36,142.579 138.194,140.912 139.5,139.5C 142.464,137.912 145.464,136.412 148.5,135C 151.087,132.919 153.087,130.419 154.5,127.5C 156.167,126.833 157.833,126.167 159.5,125.5 Z"/></g>
<g><path style="opacity:1" fill="#02fd45" d="M -0.5,164.5 C -0.5,156.833 -0.5,149.167 -0.5,141.5C 7.35449,139.306 15.3545,137.973 23.5,137.5C 24.5,138.5 25.5,139.5 26.5,140.5C 25.1028,142.982 24.2694,145.648 24,148.5C 20.9294,151.648 18.0961,154.981 15.5,158.5C 12.5535,159.321 9.55349,159.821 6.5,160C 5.06465,162.941 2.73131,164.441 -0.5,164.5 Z"/></g>
<g><path style="opacity:1" fill="#0af8b1" d="M 34.5,120.5 C 34.6567,121.873 34.49,123.207 34,124.5C 32.9354,122.604 32.1021,122.437 31.5,124C 32.7411,129.586 34.0744,135.086 35.5,140.5C 37.8333,139.167 40.1667,139.167 42.5,140.5C 43.914,139.376 45.414,138.376 47,137.5C 47.4012,139.521 48.5679,140.855 50.5,141.5C 52.1667,140.167 53.8333,140.167 55.5,141.5C 56.5896,140.609 56.5896,139.609 55.5,138.5C 53.4244,137.9 51.4244,137.567 49.5,137.5C 50.6685,135.783 52.3352,135.116 54.5,135.5C 54.5,133.833 54.5,132.167 54.5,130.5C 55.9952,130.989 57.3285,131.655 58.5,132.5C 58.3354,135.518 58.502,138.518 59,141.5C 59.5,142 60,142.5 60.5,143C 57.4262,151.64 54.7596,151.473 52.5,142.5C 49.075,142.753 45.575,143.086 42,143.5C 39.3442,144.747 36.6775,146.08 34,147.5C 30.5101,144.686 29.6767,141.186 31.5,137C 30.1248,133.942 29.1248,130.775 28.5,127.5C 27.5,127.5 26.5,127.5 25.5,127.5C 25.6741,125.139 26.0074,122.806 26.5,120.5C 29.3387,120.031 32.0054,120.031 34.5,120.5 Z"/></g>
<g><path style="opacity:1" fill="#6a6969" d="M 112.5,142.5 C 111.5,142.5 110.5,142.5 109.5,142.5C 108.974,147.412 109.641,152.078 111.5,156.5C 110.593,158.256 110.593,160.089 111.5,162C 110.833,163.667 110.167,165.333 109.5,167C 109.682,169.578 110.682,170.078 112.5,168.5C 112.666,175.175 112.5,181.842 112,188.5C 111.667,187.833 111.333,187.167 111,186.5C 110.505,188.473 110.338,190.473 110.5,192.5C 107.447,192.681 104.447,192.848 101.5,193C 103.623,188.386 105.123,183.553 106,178.5C 106.5,166.171 106.667,153.838 106.5,141.5C 111.846,141.777 112.513,139.61 108.5,135C 109.449,134.383 110.282,134.549 111,135.5C 111.662,137.813 112.162,140.146 112.5,142.5 Z"/></g>
<g><path style="opacity:1" fill="#0ff4ee" d="M 155.5,132.5 C 155.586,133.496 155.252,134.329 154.5,135C 156.134,135.494 157.801,135.66 159.5,135.5C 159.466,139.63 158.799,143.63 157.5,147.5C 160.837,147.813 163.171,146.48 164.5,143.5C 164.227,146.282 162.894,148.449 160.5,150C 159.767,151.766 159.433,153.599 159.5,155.5C 158.178,155.33 157.011,155.663 156,156.5C 154.635,162.231 151.969,167.231 148,171.5C 147.51,172.793 147.343,174.127 147.5,175.5C 146.167,175.5 144.833,175.5 143.5,175.5C 143.5,177.167 143.5,178.833 143.5,180.5C 138.464,182.636 136.631,180.969 138,175.5C 139.458,170.385 142.125,166.052 146,162.5C 148.487,156.857 151.487,151.524 155,146.5C 155.813,144.564 156.313,142.564 156.5,140.5C 154.801,140.34 153.134,140.506 151.5,141C 150.748,141.671 150.414,142.504 150.5,143.5C 149.833,143.5 149.167,143.5 148.5,143.5C 145.694,142.293 145.028,140.293 146.5,137.5C 148.754,136.876 150.421,135.543 151.5,133.5C 152.736,132.754 154.07,132.421 155.5,132.5 Z"/></g>
<g><path style="opacity:1" fill="#a6b2b3" d="M 112.5,142.5 C 112.5,151.167 112.5,159.833 112.5,168.5C 110.682,170.078 109.682,169.578 109.5,167C 110.167,165.333 110.833,163.667 111.5,162C 110.593,160.089 110.593,158.256 111.5,156.5C 109.641,152.078 108.974,147.412 109.5,142.5C 110.5,142.5 111.5,142.5 112.5,142.5 Z"/></g>
<g><path style="opacity:1" fill="#0bfd67" d="M 187.5,121.5 C 189.745,122.828 190.078,124.661 188.5,127C 190.468,131.64 191.301,136.473 191,141.5C 190.667,141.167 190.333,140.833 190,140.5C 189.626,141.416 189.126,142.25 188.5,143C 190.134,143.494 191.801,143.66 193.5,143.5C 194.185,153.722 192.352,163.389 188,172.5C 187.654,175.576 186.988,178.576 186,181.5C 184.333,182.833 182.667,182.833 181,181.5C 180.917,169.001 180.084,156.667 178.5,144.5C 178.797,138.826 179.13,133.159 179.5,127.5C 179.5,127.167 179.5,126.833 179.5,126.5C 180.15,126.804 180.817,127.137 181.5,127.5C 182.167,129.833 182.833,132.167 183.5,134.5C 184.255,131.348 185.255,128.348 186.5,125.5C 187.434,124.432 187.768,123.099 187.5,121.5 Z"/></g>
<g><path style="opacity:1" fill="#03fc80" d="M 66.5,143.5 C 68.8333,143.5 71.1667,143.5 73.5,143.5C 73.1198,148.11 75.1198,150.776 79.5,151.5C 79.5,154.167 79.5,156.833 79.5,159.5C 81.5,159.5 83.5,159.5 85.5,159.5C 85.5,167.833 85.5,176.167 85.5,184.5C 86.5,184.5 87.5,184.5 88.5,184.5C 89.449,186.737 90.1156,189.071 90.5,191.5C 86.4862,191.666 82.4862,191.499 78.5,191C 77.8095,189.933 77.3095,188.766 77,187.5C 76.5172,188.448 76.3505,189.448 76.5,190.5C 75.1667,190.5 73.8333,190.5 72.5,190.5C 72.2407,187.435 73.2407,184.935 75.5,183C 73.0275,181.202 71.3608,178.868 70.5,176C 65.7126,172.386 61.0459,168.552 56.5,164.5C 55.5481,162.955 55.2148,161.288 55.5,159.5C 56.8734,159.657 58.2068,159.49 59.5,159C 62.0159,156.137 64.1826,152.97 66,149.5C 66.4955,147.527 66.6621,145.527 66.5,143.5 Z"/></g>
<g><path style="opacity:1" fill="#06fd86" d="M 217.5,103.5 C 217.5,106.167 217.5,108.833 217.5,111.5C 214.782,127.947 212.449,144.614 210.5,161.5C 210.404,164.451 209.571,167.118 208,169.5C 207.501,175.491 207.334,181.491 207.5,187.5C 205.799,187.966 204.299,187.966 203,187.5C 202.308,188.025 201.808,188.692 201.5,189.5C 190.181,190.332 178.848,190.832 167.5,191C 167.043,191.414 166.709,191.914 166.5,192.5C 175.839,193.086 184.172,194.419 191.5,196.5C 191.703,194.61 191.037,193.11 189.5,192C 195.491,191.501 201.491,191.334 207.5,191.5C 207.5,194.5 207.5,197.5 207.5,200.5C 190.167,200.5 172.833,200.5 155.5,200.5C 159.487,188.34 161.82,175.84 162.5,163C 162.608,161.319 163.275,160.152 164.5,159.5C 164.5,167.5 164.5,175.5 164.5,183.5C 165.833,183.5 167.167,183.5 168.5,183.5C 168.5,180.833 168.5,178.167 168.5,175.5C 169.5,175.5 170.5,175.5 171.5,175.5C 172.179,164.733 173.513,154.066 175.5,143.5C 177.42,138.458 178.42,133.125 178.5,127.5C 178.833,127.5 179.167,127.5 179.5,127.5C 179.13,133.159 178.797,138.826 178.5,144.5C 180.084,156.667 180.917,169.001 181,181.5C 182.667,182.833 184.333,182.833 186,181.5C 186.988,178.576 187.654,175.576 188,172.5C 192.352,163.389 194.185,153.722 193.5,143.5C 191.801,143.66 190.134,143.494 188.5,143C 189.126,142.25 189.626,141.416 190,140.5C 190.333,140.833 190.667,141.167 191,141.5C 191.301,136.473 190.468,131.64 188.5,127C 190.078,124.661 189.745,122.828 187.5,121.5C 187.335,117.818 187.501,114.152 188,110.5C 190.304,107.702 192.138,104.702 193.5,101.5C 194.735,101.721 195.735,102.388 196.5,103.5C 198.274,101.47 199.941,99.3031 201.5,97C 200.978,94.2738 201.811,91.7738 204,89.5C 205.435,91.3736 206.602,93.3736 207.5,95.5C 205.697,97.9591 204.363,100.626 203.5,103.5C 205.124,103.36 206.29,104.027 207,105.5C 207.333,105.167 207.667,104.833 208,104.5C 208.167,105.667 208.333,106.833 208.5,108C 207.124,113.56 205.457,119.06 203.5,124.5C 204.246,128.132 204.579,131.798 204.5,135.5C 207.548,137.47 209.715,136.804 211,133.5C 211.918,130.937 211.418,128.77 209.5,127C 210.927,125.253 212.427,124.086 214,123.5C 214.333,118.167 214.667,112.833 215,107.5C 215.934,106.142 216.768,104.808 217.5,103.5 Z"/></g>
<g><path style="opacity:1" fill="#07fc42" d="M 148.5,143.5 C 149.167,143.5 149.833,143.5 150.5,143.5C 151.5,143.5 152.5,143.5 153.5,143.5C 152.116,149.618 148.782,154.284 143.5,157.5C 141.61,157.297 140.11,157.963 139,159.5C 138.529,161.246 137.862,162.913 137,164.5C 134.17,166.81 132.003,169.476 130.5,172.5C 129.5,172.5 128.5,172.5 127.5,172.5C 127.719,173.675 127.386,174.675 126.5,175.5C 126.167,173.667 125.833,171.833 125.5,170C 126.113,166.458 126.78,162.958 127.5,159.5C 130.109,159.17 131.776,157.67 132.5,155C 138.451,151.971 143.784,148.137 148.5,143.5 Z"/></g>
<g><path style="opacity:1" fill="#08f78b" d="M -0.5,102.5 C 4.68486,104.335 10.0182,105.669 15.5,106.5C 15.5,108.167 15.5,109.833 15.5,111.5C 17.8568,111.337 20.1902,111.503 22.5,112C 23.1667,113 23.8333,114 24.5,115C 30.3785,115.905 36.0452,117.405 41.5,119.5C 41.5,119.833 41.5,120.167 41.5,120.5C 41.1667,120.5 40.8333,120.5 40.5,120.5C 38.3093,119.709 36.3093,119.709 34.5,120.5C 32.0054,120.031 29.3387,120.031 26.5,120.5C 26.0074,122.806 25.6741,125.139 25.5,127.5C 26.5,127.5 27.5,127.5 28.5,127.5C 29.1248,130.775 30.1248,133.942 31.5,137C 29.6767,141.186 30.5101,144.686 34,147.5C 36.6775,146.08 39.3442,144.747 42,143.5C 45.575,143.086 49.075,142.753 52.5,142.5C 54.7596,151.473 57.4262,151.64 60.5,143C 60,142.5 59.5,142 59,141.5C 58.502,138.518 58.3354,135.518 58.5,132.5C 59.404,133.209 59.7373,134.209 59.5,135.5C 60.8221,135.67 61.9887,135.337 63,134.5C 63.4828,135.448 63.6495,136.448 63.5,137.5C 64.2055,139.672 65.2055,141.672 66.5,143.5C 66.6621,145.527 66.4955,147.527 66,149.5C 64.1826,152.97 62.0159,156.137 59.5,159C 58.2068,159.49 56.8734,159.657 55.5,159.5C 54.7197,154.279 52.3863,149.779 48.5,146C 46.1667,145.333 43.8333,145.333 41.5,146C 38.8472,149.652 35.8472,152.986 32.5,156C 31.9319,159.842 31.2652,163.675 30.5,167.5C 28.8539,168.779 27.6872,170.445 27,172.5C 25.3111,178.93 23.4778,185.264 21.5,191.5C 19.5,191.5 17.5,191.5 15.5,191.5C 15.2492,194.71 15.2492,197.71 15.5,200.5C 10.1667,200.5 4.83333,200.5 -0.5,200.5C -0.5,192.167 -0.5,183.833 -0.5,175.5C 2.16667,175.5 4.83333,175.5 7.5,175.5C 6.9353,169.332 9.76863,165.665 16,164.5C 16.2794,158.891 18.9461,154.891 24,152.5C 25.4997,147.337 27.6663,142.503 30.5,138C 30.2645,137.127 29.9312,136.293 29.5,135.5C 19.5727,133.676 9.57273,132.676 -0.5,132.5C -0.5,122.5 -0.5,112.5 -0.5,102.5 Z"/></g>
<g><path style="opacity:1" fill="#09fcc5" d="M 165.5,141.5 C 166.833,141.5 168.167,141.5 169.5,141.5C 169.337,143.857 169.503,146.19 170,148.5C 171.853,146.72 173.687,145.053 175.5,143.5C 173.513,154.066 172.179,164.733 171.5,175.5C 170.5,175.5 169.5,175.5 168.5,175.5C 168.5,178.167 168.5,180.833 168.5,183.5C 167.167,183.5 165.833,183.5 164.5,183.5C 164.5,175.5 164.5,167.5 164.5,159.5C 165.207,156.214 165.54,152.881 165.5,149.5C 164.167,149.5 162.833,149.5 161.5,149.5C 161.741,151.898 161.074,153.898 159.5,155.5C 159.433,153.599 159.767,151.766 160.5,150C 162.894,148.449 164.227,146.282 164.5,143.5C 165.338,143.158 165.672,142.492 165.5,141.5 Z"/></g>
<g><path style="opacity:1" fill="#04fc6a" d="M -0.5,132.5 C 9.57273,132.676 19.5727,133.676 29.5,135.5C 29.9312,136.293 30.2645,137.127 30.5,138C 27.6663,142.503 25.4997,147.337 24,152.5C 18.9461,154.891 16.2794,158.891 16,164.5C 9.76863,165.665 6.9353,169.332 7.5,175.5C 4.83333,175.5 2.16667,175.5 -0.5,175.5C -0.5,171.833 -0.5,168.167 -0.5,164.5C 2.73131,164.441 5.06465,162.941 6.5,160C 9.55349,159.821 12.5535,159.321 15.5,158.5C 18.0961,154.981 20.9294,151.648 24,148.5C 24.2694,145.648 25.1028,142.982 26.5,140.5C 25.5,139.5 24.5,138.5 23.5,137.5C 15.3545,137.973 7.35449,139.306 -0.5,141.5C -0.5,138.5 -0.5,135.5 -0.5,132.5 Z"/></g>
<g><path style="opacity:1" fill="#04fd4a" d="M 234.5,200.5 C 225.5,200.5 216.5,200.5 207.5,200.5C 207.5,197.5 207.5,194.5 207.5,191.5C 210.022,190.335 210.022,189.002 207.5,187.5C 207.334,181.491 207.501,175.491 208,169.5C 209.571,167.118 210.404,164.451 210.5,161.5C 212.449,144.614 214.782,127.947 217.5,111.5C 217.281,127.519 217.614,143.519 218.5,159.5C 220.167,159.5 221.833,159.5 223.5,159.5C 223.187,162.247 223.52,164.914 224.5,167.5C 225.333,166.5 226.167,165.5 227,164.5C 228.333,157.833 229.667,151.167 231,144.5C 231.866,119.108 231.033,93.7747 228.5,68.5C 230.758,67.5527 231.925,68.5527 232,71.5C 232.5,79.5052 233,87.5052 233.5,95.5C 235.5,95.5 237.5,95.5 239.5,95.5C 239.469,124.44 239.469,153.273 239.5,182C 239.167,182.5 238.833,183 238.5,183.5C 237.833,182.833 237.167,182.167 236.5,181.5C 235.378,183.044 235.711,184.377 237.5,185.5C 237,185.833 236.5,186.167 236,186.5C 234.56,185.852 233.06,185.519 231.5,185.5C 231.5,184.167 231.5,182.833 231.5,181.5C 227.016,181.551 226.35,183.385 229.5,187C 226.813,187.341 224.813,188.674 223.5,191C 225.135,191.54 226.468,191.04 227.5,189.5C 231.39,192.614 232.89,191.948 232,187.5C 232.707,189.081 233.54,190.581 234.5,192C 231.899,194.83 231.899,197.663 234.5,200.5 Z"/></g>
<g><path style="opacity:1" fill="#07fd4d" d="M 164.5,159.5 C 163.275,160.152 162.608,161.319 162.5,163C 161.82,175.84 159.487,188.34 155.5,200.5C 152.5,200.5 149.5,200.5 146.5,200.5C 147.331,195.513 148.164,190.513 149,185.5C 152.066,179.908 153.9,173.908 154.5,167.5C 155.505,164.279 156.339,160.946 157,157.5C 157.995,156.934 158.828,156.267 159.5,155.5C 161.074,153.898 161.741,151.898 161.5,149.5C 162.833,149.5 164.167,149.5 165.5,149.5C 165.54,152.881 165.207,156.214 164.5,159.5 Z"/></g>
<g><path style="opacity:1" fill="#0ff7bf" d="M 159.5,155.5 C 158.828,156.267 157.995,156.934 157,157.5C 156.339,160.946 155.505,164.279 154.5,167.5C 153.194,168.968 151.694,170.301 150,171.5C 145.77,181.332 140.936,190.999 135.5,200.5C 132.5,200.5 129.5,200.5 126.5,200.5C 126.171,194.463 126.504,188.463 127.5,182.5C 131.978,178.2 135.478,173.2 138,167.5C 141.11,164.755 142.943,161.421 143.5,157.5C 148.782,154.284 152.116,149.618 153.5,143.5C 152.5,143.5 151.5,143.5 150.5,143.5C 150.414,142.504 150.748,141.671 151.5,141C 153.134,140.506 154.801,140.34 156.5,140.5C 156.313,142.564 155.813,144.564 155,146.5C 151.487,151.524 148.487,156.857 146,162.5C 142.125,166.052 139.458,170.385 138,175.5C 136.631,180.969 138.464,182.636 143.5,180.5C 143.5,178.833 143.5,177.167 143.5,175.5C 144.833,175.5 146.167,175.5 147.5,175.5C 147.343,174.127 147.51,172.793 148,171.5C 151.969,167.231 154.635,162.231 156,156.5C 157.011,155.663 158.178,155.33 159.5,155.5 Z"/></g>
<g><path style="opacity:1" fill="#2c77a5" d="M 235.5,187.5 C 237.337,187.639 237.67,188.306 236.5,189.5C 235.702,189.043 235.369,188.376 235.5,187.5 Z"/></g>
<g><path style="opacity:1" fill="#06f770" d="M 63.5,137.5 C 65.5273,137.338 67.5273,137.505 69.5,138C 72.488,141.121 75.6547,141.288 79,138.5C 79.4935,140.134 79.6602,141.801 79.5,143.5C 81.8333,143.5 84.1667,143.5 86.5,143.5C 87.8333,148.167 90.8333,151.167 95.5,152.5C 95.5,168.167 95.5,183.833 95.5,199.5C 103.167,199.5 110.833,199.5 118.5,199.5C 118.5,199.833 118.5,200.167 118.5,200.5C 100.167,200.5 81.8333,200.5 63.5,200.5C 62.8478,199.275 61.6811,198.608 60,198.5C 56.9172,200.057 55.4172,199.39 55.5,196.5C 58.3919,196.279 61.0585,195.446 63.5,194C 56.1742,193.5 48.8409,193.334 41.5,193.5C 41.5,192.5 41.5,191.5 41.5,190.5C 50.8393,190.666 60.1726,190.5 69.5,190C 68.1667,189.333 68.1667,188.667 69.5,188C 65.1192,186.386 62.7859,183.22 62.5,178.5C 61.1076,177.395 59.941,176.061 59,174.5C 55.2708,167.082 52.2708,159.415 50,151.5C 44.8652,147.043 40.5319,147.71 37,153.5C 36.1144,158.47 35.4477,163.47 35,168.5C 33.6802,170.817 32.0136,172.817 30,174.5C 27.4116,183.038 25.5783,191.705 24.5,200.5C 21.5,200.5 18.5,200.5 15.5,200.5C 15.2492,197.71 15.2492,194.71 15.5,191.5C 17.5,191.5 19.5,191.5 21.5,191.5C 23.4778,185.264 25.3111,178.93 27,172.5C 27.6872,170.445 28.8539,168.779 30.5,167.5C 31.2652,163.675 31.9319,159.842 32.5,156C 35.8472,152.986 38.8472,149.652 41.5,146C 43.8333,145.333 46.1667,145.333 48.5,146C 52.3863,149.779 54.7197,154.279 55.5,159.5C 55.2148,161.288 55.5481,162.955 56.5,164.5C 61.0459,168.552 65.7126,172.386 70.5,176C 71.3608,178.868 73.0275,181.202 75.5,183C 73.2407,184.935 72.2407,187.435 72.5,190.5C 73.8333,190.5 75.1667,190.5 76.5,190.5C 76.3505,189.448 76.5172,188.448 77,187.5C 77.3095,188.766 77.8095,189.933 78.5,191C 82.4862,191.499 86.4862,191.666 90.5,191.5C 90.1156,189.071 89.449,186.737 88.5,184.5C 87.5,184.5 86.5,184.5 85.5,184.5C 85.5,176.167 85.5,167.833 85.5,159.5C 83.5,159.5 81.5,159.5 79.5,159.5C 79.5,156.833 79.5,154.167 79.5,151.5C 75.1198,150.776 73.1198,148.11 73.5,143.5C 71.1667,143.5 68.8333,143.5 66.5,143.5C 65.2055,141.672 64.2055,139.672 63.5,137.5 Z"/></g>
<g><path style="opacity:1" fill="#07fc59" d="M 63.5,200.5 C 50.5,200.5 37.5,200.5 24.5,200.5C 25.5783,191.705 27.4116,183.038 30,174.5C 32.0136,172.817 33.6802,170.817 35,168.5C 35.4477,163.47 36.1144,158.47 37,153.5C 40.5319,147.71 44.8652,147.043 50,151.5C 52.2708,159.415 55.2708,167.082 59,174.5C 59.941,176.061 61.1076,177.395 62.5,178.5C 62.7859,183.22 65.1192,186.386 69.5,188C 68.1667,188.667 68.1667,189.333 69.5,190C 60.1726,190.5 50.8393,190.666 41.5,190.5C 41.5,191.5 41.5,192.5 41.5,193.5C 48.8409,193.334 56.1742,193.5 63.5,194C 61.0585,195.446 58.3919,196.279 55.5,196.5C 55.4172,199.39 56.9172,200.057 60,198.5C 61.6811,198.608 62.8478,199.275 63.5,200.5 Z"/></g>
<g><path style="opacity:1" fill="#1bae52" d="M 207.5,187.5 C 210.022,189.002 210.022,190.335 207.5,191.5C 201.491,191.334 195.491,191.501 189.5,192C 191.037,193.11 191.703,194.61 191.5,196.5C 184.172,194.419 175.839,193.086 166.5,192.5C 166.709,191.914 167.043,191.414 167.5,191C 178.848,190.832 190.181,190.332 201.5,189.5C 201.808,188.692 202.308,188.025 203,187.5C 204.299,187.966 205.799,187.966 207.5,187.5 Z"/></g>
<g><path style="opacity:1" fill="#07fb73" d="M 154.5,167.5 C 153.9,173.908 152.066,179.908 149,185.5C 148.164,190.513 147.331,195.513 146.5,200.5C 142.833,200.5 139.167,200.5 135.5,200.5C 140.936,190.999 145.77,181.332 150,171.5C 151.694,170.301 153.194,168.968 154.5,167.5 Z"/></g>
</svg>
