<?xml version="1.0" encoding="UTF-8"?>
<!DOCTYPE svg PUBLIC "-//W3C//DTD SVG 1.1//EN" "http://www.w3.org/Graphics/SVG/1.1/DTD/svg11.dtd">
<svg xmlns="http://www.w3.org/2000/svg" version="1.1" width="201px" height="251px" style="shape-rendering:geometricPrecision; text-rendering:geometricPrecision; image-rendering:optimizeQuality; fill-rule:evenodd; clip-rule:evenodd" xmlns:xlink="http://www.w3.org/1999/xlink">
<g><path style="opacity:1" fill="#628db8" d="M 47.5,-0.5 C 98.5,-0.5 149.5,-0.5 200.5,-0.5C 200.5,23.5 200.5,47.5 200.5,71.5C 199.527,69.0521 199.194,66.3854 199.5,63.5C 197.5,63.5 195.5,63.5 193.5,63.5C 193.927,60.2123 193.26,57.2123 191.5,54.5C 190.167,54.1667 188.833,53.8333 187.5,53.5C 183.593,54.8112 179.593,55.4778 175.5,55.5C 175.5,54.1667 175.5,52.8333 175.5,51.5C 172.833,51.5 170.167,51.5 167.5,51.5C 167.5,50.1667 167.5,48.8333 167.5,47.5C 172.833,47.5 178.167,47.5 183.5,47.5C 183.5,44.8333 183.5,42.1667 183.5,39.5C 180.833,39.5 178.167,39.5 175.5,39.5C 175.5,36.8333 175.5,34.1667 175.5,31.5C 170.167,31.5 164.833,31.5 159.5,31.5C 159.5,28.8333 159.5,26.1667 159.5,23.5C 154.167,24.1667 148.833,24.8333 143.5,25.5C 143.5,27.5 143.5,29.5 143.5,31.5C 138.167,31.5 132.833,31.5 127.5,31.5C 126.474,28.462 126.308,25.462 127,22.5C 124.503,24.4782 121.669,24.9782 118.5,24C 117.594,22.3005 117.261,20.4672 117.5,18.5C 120.518,18.6646 123.518,18.498 126.5,18C 125.114,16.3968 123.281,15.5634 121,15.5C 116.498,16.5868 111.998,17.9201 107.5,19.5C 100.123,17.4118 92.79,17.0785 85.5,18.5C 83.5,18.5 81.5,18.5 79.5,18.5C 76.3758,16.5703 72.8758,16.237 69,17.5C 65.4888,16.8919 61.9888,16.2252 58.5,15.5C 56.8333,15.8333 55.1667,16.1667 53.5,16.5C 54.1667,17.1667 54.8333,17.8333 55.5,18.5C 52.9135,19.48 50.2469,19.8134 47.5,19.5C 47.5,20.8333 47.5,22.1667 47.5,23.5C 44.8333,23.5 42.1667,23.5 39.5,23.5C 39.5,24.8333 39.5,26.1667 39.5,27.5C 36.8333,27.5 34.1667,27.5 31.5,27.5C 31.5,23.5 31.5,19.5 31.5,15.5C 36.8333,15.5 42.1667,15.5 47.5,15.5C 47.5,10.1667 47.5,4.83333 47.5,-0.5 Z"/></g>
<g><path style="opacity:1" fill="#6b8faf" d="M 127.5,31.5 C 127.5,33.1667 127.5,34.8333 127.5,36.5C 127.167,36.5 126.833,36.5 126.5,36.5C 126.573,34.9731 125.906,33.9731 124.5,33.5C 121.898,27.8955 117.564,24.5622 111.5,23.5C 110.081,22.5489 108.415,22.2155 106.5,22.5C 102.28,20.919 97.947,19.5857 93.5,18.5C 92.391,18.5569 91.391,18.8902 90.5,19.5C 89.0813,18.5489 87.4147,18.2155 85.5,18.5C 92.79,17.0785 100.123,17.4118 107.5,19.5C 111.998,17.9201 116.498,16.5868 121,15.5C 123.281,15.5634 125.114,16.3968 126.5,18C 123.518,18.498 120.518,18.6646 117.5,18.5C 117.261,20.4672 117.594,22.3005 118.5,24C 121.669,24.9782 124.503,24.4782 127,22.5C 126.308,25.462 126.474,28.462 127.5,31.5 Z"/></g>
<g><path style="opacity:1" fill="#606e88" d="M 79.5,18.5 C 81.5,18.5 83.5,18.5 85.5,18.5C 87.4147,18.2155 89.0813,18.5489 90.5,19.5C 86.8333,20.1667 83.1667,20.8333 79.5,21.5C 76.8333,21.5 74.1667,21.5 71.5,21.5C 74.0873,20.2513 76.754,19.2513 79.5,18.5 Z"/></g>
<g><path style="opacity:1" fill="#7c8994" d="M 93.5,18.5 C 92.7659,19.7079 92.4326,21.0413 92.5,22.5C 87.9677,22.8182 83.6344,22.4849 79.5,21.5C 83.1667,20.8333 86.8333,20.1667 90.5,19.5C 91.391,18.8902 92.391,18.5569 93.5,18.5 Z"/></g>
<g><path style="opacity:1" fill="#c9c8d3" d="M 93.5,18.5 C 97.947,19.5857 102.28,20.919 106.5,22.5C 101.833,22.5 97.1667,22.5 92.5,22.5C 92.4326,21.0413 92.7659,19.7079 93.5,18.5 Z"/></g>
<g><path style="opacity:1" fill="#7c6976" d="M 71.5,21.5 C 74.1667,21.5 76.8333,21.5 79.5,21.5C 83.6344,22.4849 87.9677,22.8182 92.5,22.5C 97.1667,22.5 101.833,22.5 106.5,22.5C 108.415,22.2155 110.081,22.5489 111.5,23.5C 109.5,23.5 107.5,23.5 105.5,23.5C 99.5,23.5 93.5,23.5 87.5,23.5C 80.1319,23.3169 72.7985,23.6502 65.5,24.5C 67.5,23.5 69.5,22.5 71.5,21.5 Z"/></g>
<g><path style="opacity:1" fill="#641d2f" d="M 87.5,24.5 C 87.5,25.5 87.5,26.5 87.5,27.5C 88.2625,28.2679 89.2625,28.7679 90.5,29C 87.0418,30.4155 83.3751,30.9155 79.5,30.5C 81.2922,29.6909 83.2922,29.1909 85.5,29C 80.8333,28.6667 76.1667,28.3333 71.5,28C 72.0465,27.0754 72.7132,26.2421 73.5,25.5C 78.1001,24.5565 82.7668,24.2232 87.5,24.5 Z"/></g>
<g><path style="opacity:1" fill="#9a3746" d="M 87.5,23.5 C 93.5,23.5 99.5,23.5 105.5,23.5C 108.311,24.475 111.311,25.1417 114.5,25.5C 114.414,26.4959 114.748,27.3292 115.5,28C 106.176,28.0012 96.8431,27.8345 87.5,27.5C 87.5,26.5 87.5,25.5 87.5,24.5C 87.5,24.1667 87.5,23.8333 87.5,23.5 Z"/></g>
<g><path style="opacity:1" fill="#693e50" d="M 105.5,23.5 C 107.5,23.5 109.5,23.5 111.5,23.5C 117.564,24.5622 121.898,27.8955 124.5,33.5C 122.539,32.5398 120.873,31.2065 119.5,29.5C 117.858,28.197 116.191,26.8637 114.5,25.5C 111.311,25.1417 108.311,24.475 105.5,23.5 Z"/></g>
<g><path style="opacity:1" fill="#4a162a" d="M 87.5,23.5 C 87.5,23.8333 87.5,24.1667 87.5,24.5C 82.7668,24.2232 78.1001,24.5565 73.5,25.5C 72.7132,26.2421 72.0465,27.0754 71.5,28C 76.1667,28.3333 80.8333,28.6667 85.5,29C 83.2922,29.1909 81.2922,29.6909 79.5,30.5C 78.0813,31.4511 76.4147,31.7845 74.5,31.5C 74.5,32.5 74.5,33.5 74.5,34.5C 76.1667,34.5 77.8333,34.5 79.5,34.5C 74.3595,35.4881 69.0262,35.8214 63.5,35.5C 63.5,35.1667 63.5,34.8333 63.5,34.5C 63.528,32.4176 62.8613,30.5843 61.5,29C 63.4951,28.0764 63.8284,26.9097 62.5,25.5C 63.209,24.596 64.209,24.2627 65.5,24.5C 72.7985,23.6502 80.1319,23.3169 87.5,23.5 Z"/></g>
<g><path style="opacity:1" fill="#7e2633" d="M 114.5,25.5 C 116.191,26.8637 117.858,28.197 119.5,29.5C 112.85,30.1101 106.184,30.6101 99.5,31C 105.646,32.0617 111.646,33.2283 117.5,34.5C 104.833,34.5 92.1667,34.5 79.5,34.5C 77.8333,34.5 76.1667,34.5 74.5,34.5C 74.5,33.5 74.5,32.5 74.5,31.5C 76.4147,31.7845 78.0813,31.4511 79.5,30.5C 83.3751,30.9155 87.0418,30.4155 90.5,29C 89.2625,28.7679 88.2625,28.2679 87.5,27.5C 96.8431,27.8345 106.176,28.0012 115.5,28C 114.748,27.3292 114.414,26.4959 114.5,25.5 Z"/></g>
<g><path style="opacity:1" fill="#9a3037" d="M 119.5,29.5 C 120.873,31.2065 122.539,32.5398 124.5,33.5C 123.082,35.3079 121.082,35.9746 118.5,35.5C 118.5,34.8333 118.167,34.5 117.5,34.5C 111.646,33.2283 105.646,32.0617 99.5,31C 106.184,30.6101 112.85,30.1101 119.5,29.5 Z"/></g>
<g><path style="opacity:1" fill="#14081e" d="M 62.5,25.5 C 63.8284,26.9097 63.4951,28.0764 61.5,29C 62.8613,30.5843 63.528,32.4176 63.5,34.5C 61.2655,35.4469 58.9322,36.1136 56.5,36.5C 54.9704,36.3601 53.9704,35.6935 53.5,34.5C 55.5,30.5 58.5,27.5 62.5,25.5 Z"/></g>
<g><path style="opacity:1" fill="#4d417f" d="M 79.5,34.5 C 92.1667,34.5 104.833,34.5 117.5,34.5C 118.167,34.5 118.5,34.8333 118.5,35.5C 120.948,36.4731 123.615,36.8064 126.5,36.5C 126.833,36.5 127.167,36.5 127.5,36.5C 127.5,36.8333 127.5,37.1667 127.5,37.5C 122.138,37.5276 116.805,37.1942 111.5,36.5C 104.167,36.5 96.8333,36.5 89.5,36.5C 80.8333,36.5 72.1667,36.5 63.5,36.5C 63.5,36.1667 63.5,35.8333 63.5,35.5C 69.0262,35.8214 74.3595,35.4881 79.5,34.5 Z"/></g>
<g><path style="opacity:1" fill="#6d4059" d="M 124.5,33.5 C 125.906,33.9731 126.573,34.9731 126.5,36.5C 123.615,36.8064 120.948,36.4731 118.5,35.5C 121.082,35.9746 123.082,35.3079 124.5,33.5 Z"/></g>
<g><path style="opacity:1" fill="#0b0733" d="M 53.5,34.5 C 53.9704,35.6935 54.9704,36.3601 56.5,36.5C 58.9322,36.1136 61.2655,35.4469 63.5,34.5C 63.5,34.8333 63.5,35.1667 63.5,35.5C 63.5,35.8333 63.5,36.1667 63.5,36.5C 63.5,37.1667 63.5,37.8333 63.5,38.5C 59.4659,38.5045 55.4659,38.8379 51.5,39.5C 51.5,39.1667 51.5,38.8333 51.5,38.5C 51.6596,36.847 52.3263,35.5137 53.5,34.5 Z"/></g>
<g><path style="opacity:1" fill="#060855" d="M 63.5,38.5 C 66.6168,39.7181 69.6168,40.8847 72.5,42C 70.404,42.7365 68.7373,43.9032 67.5,45.5C 61.8875,44.8954 56.2209,44.8954 50.5,45.5C 50.2053,43.2646 50.5386,41.2646 51.5,39.5C 55.4659,38.8379 59.4659,38.5045 63.5,38.5 Z"/></g>
<g><path style="opacity:1" fill="#3b4aa0" d="M 89.5,36.5 C 96.8333,36.5 104.167,36.5 111.5,36.5C 106.319,37.1665 100.985,37.8332 95.5,38.5C 104.221,39.0877 112.888,39.921 121.5,41C 118.62,41.6841 115.787,41.5174 113,40.5C 110.567,41.4788 108.067,42.1455 105.5,42.5C 102.167,42.5 98.8333,42.5 95.5,42.5C 90.5932,40.711 85.2599,39.8777 79.5,40C 82.8168,39.5017 86.1501,39.335 89.5,39.5C 89.5,38.5 89.5,37.5 89.5,36.5 Z"/></g>
<g><path style="opacity:1" fill="#6791bc" d="M 51.5,38.5 C 51.5,38.8333 51.5,39.1667 51.5,39.5C 50.5386,41.2646 50.2053,43.2646 50.5,45.5C 50.5,46.1667 50.5,46.8333 50.5,47.5C 48.8763,45.8632 47.8763,46.1966 47.5,48.5C 47.8178,49.6473 48.4844,50.4806 49.5,51C 48.8333,51.3333 48.1667,51.6667 47.5,52C 48.8333,53 48.8333,54 47.5,55C 48.7932,55.49 50.1266,55.6567 51.5,55.5C 51.4249,58.2062 51.0916,60.8728 50.5,63.5C 51.5,63.5 52.5,63.5 53.5,63.5C 53.7424,67.479 54.7424,71.1456 56.5,74.5C 56.5,76.1667 56.5,77.8333 56.5,79.5C 57.5,79.5 58.5,79.5 59.5,79.5C 59.5,81.8333 59.5,84.1667 59.5,86.5C 56.0473,85.7951 52.5473,85.1284 49,84.5C 45.2247,83.1406 41.7247,81.4739 38.5,79.5C 36.4357,78.1324 34.1024,77.1324 31.5,76.5C 30.3539,75.2813 29.3539,73.9479 28.5,72.5C 27.8679,74.7368 26.5346,76.4035 24.5,77.5C 21.4752,74.9719 18.9752,71.9719 17,68.5C 16.6667,69.1667 16.3333,69.8333 16,70.5C 15.5003,62.8406 15.3336,55.1739 15.5,47.5C 20.8333,47.5 26.1667,47.5 31.5,47.5C 31.5,41.5 31.5,35.5 31.5,29.5C 34.2469,29.1866 36.9135,29.52 39.5,30.5C 38.675,31.3857 37.675,31.719 36.5,31.5C 36.5,34.1667 36.5,36.8333 36.5,39.5C 38.5,39.8333 40.5,40.1667 42.5,40.5C 42.5,41.5 42.5,42.5 42.5,43.5C 44.1667,43.5 45.8333,43.5 47.5,43.5C 47.5,41.8333 47.5,40.1667 47.5,38.5C 48.8333,38.5 50.1667,38.5 51.5,38.5 Z"/></g>
<g><path style="opacity:1" fill="#152881" d="M 63.5,36.5 C 72.1667,36.5 80.8333,36.5 89.5,36.5C 89.5,37.5 89.5,38.5 89.5,39.5C 86.1501,39.335 82.8168,39.5017 79.5,40C 85.2599,39.8777 90.5932,40.711 95.5,42.5C 90.1254,42.1718 84.7921,42.5052 79.5,43.5C 80.6888,44.4287 82.0222,44.762 83.5,44.5C 83.5,44.8333 83.5,45.1667 83.5,45.5C 78.1667,45.5 72.8333,45.5 67.5,45.5C 68.7373,43.9032 70.404,42.7365 72.5,42C 69.6168,40.8847 66.6168,39.7181 63.5,38.5C 63.5,37.8333 63.5,37.1667 63.5,36.5 Z"/></g>
<g><path style="opacity:1" fill="#0b2b97" d="M 95.5,42.5 C 98.8333,42.5 102.167,42.5 105.5,42.5C 107.292,43.3091 109.292,43.8091 111.5,44C 102.173,44.4998 92.8393,44.6665 83.5,44.5C 82.0222,44.762 80.6888,44.4287 79.5,43.5C 84.7921,42.5052 90.1254,42.1718 95.5,42.5 Z"/></g>
<g><path style="opacity:1" fill="#223fa3" d="M 111.5,36.5 C 116.805,37.1942 122.138,37.5276 127.5,37.5C 127.5,38.1667 127.5,38.8333 127.5,39.5C 127.5,41.5 127.5,43.5 127.5,45.5C 120.167,45.5 112.833,45.5 105.5,45.5C 98.1667,45.5 90.8333,45.5 83.5,45.5C 83.5,45.1667 83.5,44.8333 83.5,44.5C 92.8393,44.6665 102.173,44.4998 111.5,44C 109.292,43.8091 107.292,43.3091 105.5,42.5C 108.067,42.1455 110.567,41.4788 113,40.5C 115.787,41.5174 118.62,41.6841 121.5,41C 112.888,39.921 104.221,39.0877 95.5,38.5C 100.985,37.8332 106.319,37.1665 111.5,36.5 Z"/></g>
<g><path style="opacity:1" fill="#37528a" d="M 127.5,39.5 C 128.833,42.1667 128.833,44.8333 127.5,47.5C 117.024,46.7952 106.357,46.7952 95.5,47.5C 95.5,47.1667 95.5,46.8333 95.5,46.5C 99.0419,46.8128 102.375,46.4794 105.5,45.5C 112.833,45.5 120.167,45.5 127.5,45.5C 127.5,43.5 127.5,41.5 127.5,39.5 Z"/></g>
<g><path style="opacity:1" fill="#6692bd" d="M 200.5,71.5 C 200.5,74.1667 200.5,76.8333 200.5,79.5C 186.833,79.5 173.167,79.5 159.5,79.5C 159.5,76.1667 159.5,72.8333 159.5,69.5C 148.906,71.0491 138.24,71.7158 127.5,71.5C 128.036,68.3019 127.369,65.6353 125.5,63.5C 124.067,61.4418 123.4,59.1085 123.5,56.5C 124.833,56.5 126.167,56.5 127.5,56.5C 128.01,53.6122 127.344,51.2789 125.5,49.5C 126.167,48.8333 126.833,48.1667 127.5,47.5C 128.833,44.8333 128.833,42.1667 127.5,39.5C 127.5,38.8333 127.5,38.1667 127.5,37.5C 127.5,37.1667 127.5,36.8333 127.5,36.5C 127.5,34.8333 127.5,33.1667 127.5,31.5C 132.833,31.5 138.167,31.5 143.5,31.5C 143.5,29.5 143.5,27.5 143.5,25.5C 148.833,24.8333 154.167,24.1667 159.5,23.5C 159.5,26.1667 159.5,28.8333 159.5,31.5C 164.833,31.5 170.167,31.5 175.5,31.5C 175.5,34.1667 175.5,36.8333 175.5,39.5C 178.167,39.5 180.833,39.5 183.5,39.5C 183.5,42.1667 183.5,44.8333 183.5,47.5C 178.167,47.5 172.833,47.5 167.5,47.5C 167.5,48.8333 167.5,50.1667 167.5,51.5C 170.167,51.5 172.833,51.5 175.5,51.5C 175.5,52.8333 175.5,54.1667 175.5,55.5C 179.593,55.4778 183.593,54.8112 187.5,53.5C 188.833,53.8333 190.167,54.1667 191.5,54.5C 193.26,57.2123 193.927,60.2123 193.5,63.5C 195.5,63.5 197.5,63.5 199.5,63.5C 199.194,66.3854 199.527,69.0521 200.5,71.5 Z"/></g>
<g><path style="opacity:1" fill="#0d2164" d="M 67.5,45.5 C 72.8333,45.5 78.1667,45.5 83.5,45.5C 90.8333,45.5 98.1667,45.5 105.5,45.5C 102.375,46.4794 99.0419,46.8128 95.5,46.5C 83.4954,46.3335 71.4954,46.5001 59.5,47C 71.6378,48.6513 83.6378,48.8179 95.5,47.5C 106.357,46.7952 117.024,46.7952 127.5,47.5C 126.833,48.1667 126.167,48.8333 125.5,49.5C 124.833,49.5 124.167,49.5 123.5,49.5C 119.566,50.3597 115.566,50.693 111.5,50.5C 94.0047,49.6684 76.3381,49.1684 58.5,49C 55.9373,47.9207 53.2706,47.4207 50.5,47.5C 50.5,46.8333 50.5,46.1667 50.5,45.5C 56.2209,44.8954 61.8875,44.8954 67.5,45.5 Z"/></g>
<g><path style="opacity:1" fill="#2b3873" d="M 95.5,46.5 C 95.5,46.8333 95.5,47.1667 95.5,47.5C 83.6378,48.8179 71.6378,48.6513 59.5,47C 71.4954,46.5001 83.4954,46.3335 95.5,46.5 Z"/></g>
<g><path style="opacity:1" fill="#1f3b75" d="M 50.5,47.5 C 53.2706,47.4207 55.9373,47.9207 58.5,49C 76.3381,49.1684 94.0047,49.6684 111.5,50.5C 109.031,51.3171 106.365,51.8171 103.5,52C 90.1667,52.6667 76.8333,52.6667 63.5,52C 59.4423,51.6596 55.4423,50.9929 51.5,50C 50.7476,49.3292 50.4142,48.4959 50.5,47.5 Z"/></g>
<g><path style="opacity:1" fill="#6b91b7" d="M 50.5,47.5 C 50.4142,48.4959 50.7476,49.3292 51.5,50C 55.4423,50.9929 59.4423,51.6596 63.5,52C 76.8333,52.6667 90.1667,52.6667 103.5,52C 106.365,51.8171 109.031,51.3171 111.5,50.5C 115.566,50.693 119.566,50.3597 123.5,49.5C 123.586,50.4959 123.252,51.3292 122.5,52C 118.848,52.4986 115.182,52.6653 111.5,52.5C 111.5,53.5 111.5,54.5 111.5,55.5C 113.927,55.523 116.26,56.023 118.5,57C 117.833,58 117.167,59 116.5,60C 109.535,61.0086 102.535,61.8419 95.5,62.5C 100.792,63.4948 106.125,63.8282 111.5,63.5C 111.5,68.8333 111.5,74.1667 111.5,79.5C 108.833,79.5 106.167,79.5 103.5,79.5C 103.5,76.8333 103.5,74.1667 103.5,71.5C 94.1441,71.2787 84.8107,71.6121 75.5,72.5C 71.5932,71.1888 67.5932,70.5222 63.5,70.5C 63.6567,71.8734 63.49,73.2068 63,74.5C 61.0492,68.9383 61.2158,63.4383 63.5,58C 63.1667,56.8333 62.8333,55.6667 62.5,54.5C 59.9665,55.7883 57.4665,55.7883 55,54.5C 55.1657,61.1586 55.6657,67.8253 56.5,74.5C 54.7424,71.1456 53.7424,67.479 53.5,63.5C 52.5,63.5 51.5,63.5 50.5,63.5C 51.0916,60.8728 51.4249,58.2062 51.5,55.5C 50.1266,55.6567 48.7932,55.49 47.5,55C 48.8333,54 48.8333,53 47.5,52C 48.1667,51.6667 48.8333,51.3333 49.5,51C 48.4844,50.4806 47.8178,49.6473 47.5,48.5C 47.8763,46.1966 48.8763,45.8632 50.5,47.5 Z"/></g>
<g><path style="opacity:1" fill="#6c96bd" d="M 125.5,63.5 C 127.369,65.6353 128.036,68.3019 127.5,71.5C 138.24,71.7158 148.906,71.0491 159.5,69.5C 159.5,72.8333 159.5,76.1667 159.5,79.5C 173.167,79.5 186.833,79.5 200.5,79.5C 200.5,98.1667 200.5,116.833 200.5,135.5C 195.796,133.148 191.129,130.815 186.5,128.5C 173.694,122.232 162.028,114.066 151.5,104C 143.734,103.196 136.067,103.696 128.5,105.5C 124.906,104.574 121.24,104.241 117.5,104.5C 116.597,101.609 116.264,98.6085 116.5,95.5C 118.5,95.5 120.5,95.5 122.5,95.5C 122.5,84.8333 122.5,74.1667 122.5,63.5C 123.5,63.5 124.5,63.5 125.5,63.5 Z"/></g>
<g><path style="opacity:1" fill="#7295b4" d="M 103.5,79.5 C 102.683,81.9686 102.183,84.6353 102,87.5C 101.818,84.7737 101.318,82.1071 100.5,79.5C 99.5052,84.7921 99.1718,90.1254 99.5,95.5C 97.6203,95.2291 96.287,95.8958 95.5,97.5C 88.2523,98.3208 81.5856,96.9875 75.5,93.5C 70.9194,90.3777 65.9194,88.0444 60.5,86.5C 60.1667,86.5 59.8333,86.5 59.5,86.5C 59.5,84.1667 59.5,81.8333 59.5,79.5C 58.5,79.5 57.5,79.5 56.5,79.5C 56.5,77.8333 56.5,76.1667 56.5,74.5C 55.6657,67.8253 55.1657,61.1586 55,54.5C 57.4665,55.7883 59.9665,55.7883 62.5,54.5C 62.8333,55.6667 63.1667,56.8333 63.5,58C 61.2158,63.4383 61.0492,68.9383 63,74.5C 63.49,73.2068 63.6567,71.8734 63.5,70.5C 67.5932,70.5222 71.5932,71.1888 75.5,72.5C 84.8107,71.6121 94.1441,71.2787 103.5,71.5C 103.5,74.1667 103.5,76.8333 103.5,79.5 Z"/></g>
<g><path style="opacity:1" fill="#7597b2" d="M 123.5,49.5 C 124.167,49.5 124.833,49.5 125.5,49.5C 127.344,51.2789 128.01,53.6122 127.5,56.5C 126.167,56.5 124.833,56.5 123.5,56.5C 123.4,59.1085 124.067,61.4418 125.5,63.5C 124.5,63.5 123.5,63.5 122.5,63.5C 122.5,74.1667 122.5,84.8333 122.5,95.5C 120.5,95.5 118.5,95.5 116.5,95.5C 116.264,98.6085 116.597,101.609 117.5,104.5C 116.504,104.414 115.671,104.748 115,105.5C 114.495,107.518 113.995,109.518 113.5,111.5C 112.624,111.631 111.957,111.298 111.5,110.5C 112.752,108.265 113.252,105.931 113,103.5C 112.667,103.833 112.333,104.167 112,104.5C 109.061,103.872 106.228,103.205 103.5,102.5C 100.974,100.546 98.3075,98.879 95.5,97.5C 96.287,95.8958 97.6203,95.2291 99.5,95.5C 99.1718,90.1254 99.5052,84.7921 100.5,79.5C 101.318,82.1071 101.818,84.7737 102,87.5C 102.183,84.6353 102.683,81.9686 103.5,79.5C 106.167,79.5 108.833,79.5 111.5,79.5C 111.5,74.1667 111.5,68.8333 111.5,63.5C 106.125,63.8282 100.792,63.4948 95.5,62.5C 102.535,61.8419 109.535,61.0086 116.5,60C 117.167,59 117.833,58 118.5,57C 116.26,56.023 113.927,55.523 111.5,55.5C 111.5,54.5 111.5,53.5 111.5,52.5C 115.182,52.6653 118.848,52.4986 122.5,52C 123.252,51.3292 123.586,50.4959 123.5,49.5 Z"/></g>
<g><path style="opacity:1" fill="#668eb5" d="M -0.5,-0.5 C 15.5,-0.5 31.5,-0.5 47.5,-0.5C 47.5,4.83333 47.5,10.1667 47.5,15.5C 42.1667,15.5 36.8333,15.5 31.5,15.5C 31.5,19.5 31.5,23.5 31.5,27.5C 34.1667,27.5 36.8333,27.5 39.5,27.5C 39.5,26.1667 39.5,24.8333 39.5,23.5C 42.1667,23.5 44.8333,23.5 47.5,23.5C 47.5,22.1667 47.5,20.8333 47.5,19.5C 50.2469,19.8134 52.9135,19.48 55.5,18.5C 54.8333,17.8333 54.1667,17.1667 53.5,16.5C 55.1667,16.1667 56.8333,15.8333 58.5,15.5C 61.9888,16.2252 65.4888,16.8919 69,17.5C 72.8758,16.237 76.3758,16.5703 79.5,18.5C 76.754,19.2513 74.0873,20.2513 71.5,21.5C 69.5,22.5 67.5,23.5 65.5,24.5C 64.209,24.2627 63.209,24.596 62.5,25.5C 58.5,27.5 55.5,30.5 53.5,34.5C 52.3263,35.5137 51.6596,36.847 51.5,38.5C 50.1667,38.5 48.8333,38.5 47.5,38.5C 47.5,40.1667 47.5,41.8333 47.5,43.5C 45.8333,43.5 44.1667,43.5 42.5,43.5C 42.5,42.5 42.5,41.5 42.5,40.5C 40.5,40.1667 38.5,39.8333 36.5,39.5C 36.5,36.8333 36.5,34.1667 36.5,31.5C 37.675,31.719 38.675,31.3857 39.5,30.5C 36.9135,29.52 34.2469,29.1866 31.5,29.5C 31.5,35.5 31.5,41.5 31.5,47.5C 26.1667,47.5 20.8333,47.5 15.5,47.5C 15.3336,55.1739 15.5003,62.8406 16,70.5C 16.3333,69.8333 16.6667,69.1667 17,68.5C 18.9752,71.9719 21.4752,74.9719 24.5,77.5C 26.5346,76.4035 27.8679,74.7368 28.5,72.5C 29.3539,73.9479 30.3539,75.2813 31.5,76.5C 34.1024,77.1324 36.4357,78.1324 38.5,79.5C 37.1667,79.5 35.8333,79.5 34.5,79.5C 29.2765,78.205 23.9432,78.3716 18.5,80C 12.478,83.8718 6.14463,87.0384 -0.5,89.5C -0.5,59.5 -0.5,29.5 -0.5,-0.5 Z"/></g>
<g><path style="opacity:1" fill="#4f698a" d="M 34.5,79.5 C 35.8333,79.5 37.1667,79.5 38.5,79.5C 41.7247,81.4739 45.2247,83.1406 49,84.5C 52.5473,85.1284 56.0473,85.7951 59.5,86.5C 59.8333,86.5 60.1667,86.5 60.5,86.5C 61.5791,88.0806 61.5791,89.7473 60.5,91.5C 61.9951,93.9902 62.9951,96.6568 63.5,99.5C 60.7531,99.1866 58.0865,99.52 55.5,100.5C 55.9767,101.478 56.6433,102.311 57.5,103C 56.8333,103.167 56.1667,103.333 55.5,103.5C 50.7318,101.672 45.7318,100.672 40.5,100.5C 40.5,99.5 40.5,98.5 40.5,97.5C 39.5,97.5 38.5,97.5 37.5,97.5C 37.719,96.325 37.3857,95.325 36.5,94.5C 35.109,95.6446 33.7757,95.6446 32.5,94.5C 33.1667,93.8333 33.8333,93.1667 34.5,92.5C 33.027,90.6053 31.3603,88.9387 29.5,87.5C 31.7247,85.4378 32.058,83.1045 30.5,80.5C 31.6888,79.5713 33.0222,79.238 34.5,79.5 Z"/></g>
<g><path style="opacity:1" fill="#566b87" d="M 75.5,93.5 C 81.5856,96.9875 88.2523,98.3208 95.5,97.5C 98.3075,98.879 100.974,100.546 103.5,102.5C 100.174,101.655 96.8403,101.155 93.5,101C 97.2832,101.609 98.9498,103.776 98.5,107.5C 96.1421,106.822 93.9754,106.488 92,106.5C 89.7337,109.8 88.567,113.466 88.5,117.5C 90.3588,117.461 91.6921,118.294 92.5,120C 90.6755,122.081 89.0089,121.915 87.5,119.5C 86.52,122.086 86.1866,124.753 86.5,127.5C 84.8008,127.34 83.1341,127.506 81.5,128C 82.3742,133.1 83.0409,138.266 83.5,143.5C 82.8333,143.5 82.1667,143.5 81.5,143.5C 81.0528,139.28 81.0528,135.114 81.5,131C 78.587,127.572 76.2537,123.739 74.5,119.5C 75.9624,115.2 75.2958,112.033 72.5,110C 73.7922,106.779 73.6255,103.613 72,100.5C 71.6667,101.5 71.3333,102.5 71,103.5C 70.5983,102.128 70.0983,100.795 69.5,99.5C 70.727,98.4096 71.5604,97.0762 72,95.5C 73.3024,94.9152 74.469,94.2485 75.5,93.5 Z"/></g>
<g><path style="opacity:1" fill="#5d718a" d="M 103.5,102.5 C 106.228,103.205 109.061,103.872 112,104.5C 112.333,104.167 112.667,103.833 113,103.5C 113.252,105.931 112.752,108.265 111.5,110.5C 111.957,111.298 112.624,111.631 113.5,111.5C 112.285,120.765 110.951,129.932 109.5,139C 109.508,140.707 109.842,142.207 110.5,143.5C 109.432,144.434 108.099,144.768 106.5,144.5C 105.585,149.539 105.585,154.539 106.5,159.5C 105.5,159.5 104.5,159.5 103.5,159.5C 103.489,157.453 103.156,155.453 102.5,153.5C 106.06,145.154 108.394,136.487 109.5,127.5C 109.657,126.127 109.49,124.793 109,123.5C 107.247,124.627 105.413,125.627 103.5,126.5C 103.308,130.411 103.141,134.411 103,138.5C 101.374,139.955 100.208,141.622 99.5,143.5C 98.5206,146.625 98.1872,149.958 98.5,153.5C 98.7947,155.735 98.4614,157.735 97.5,159.5C 97.1703,153.132 97.5037,146.798 98.5,140.5C 100.394,139.101 101.727,137.268 102.5,135C 101.5,132.5 100.5,130 99.5,127.5C 98.7838,129.482 97.6171,131.149 96,132.5C 95.7978,130.744 95.2978,129.078 94.5,127.5C 93.1868,132.22 93.3534,136.887 95,141.5C 95.3333,140.5 95.6667,139.5 96,138.5C 96.4935,140.134 96.6602,141.801 96.5,143.5C 95.5,143.5 94.5,143.5 93.5,143.5C 93.8214,149.026 93.4881,154.36 92.5,159.5C 92.5,154.167 92.5,148.833 92.5,143.5C 91.5,143.5 90.5,143.5 89.5,143.5C 89.6469,148.214 89.3136,152.881 88.5,157.5C 87.7185,152.16 87.0519,146.66 86.5,141C 86.985,137.589 87.6517,134.256 88.5,131C 87.9152,129.698 87.2485,128.531 86.5,127.5C 86.1866,124.753 86.52,122.086 87.5,119.5C 89.0089,121.915 90.6755,122.081 92.5,120C 91.6921,118.294 90.3588,117.461 88.5,117.5C 88.567,113.466 89.7337,109.8 92,106.5C 93.9754,106.488 96.1421,106.822 98.5,107.5C 98.9498,103.776 97.2832,101.609 93.5,101C 96.8403,101.155 100.174,101.655 103.5,102.5 Z"/></g>
<g><path style="opacity:1" fill="#415e85" d="M 34.5,79.5 C 33.0222,79.238 31.6888,79.5713 30.5,80.5C 32.058,83.1045 31.7247,85.4378 29.5,87.5C 31.3603,88.9387 33.027,90.6053 34.5,92.5C 33.8333,93.1667 33.1667,93.8333 32.5,94.5C 33.7757,95.6446 35.109,95.6446 36.5,94.5C 37.3857,95.325 37.719,96.325 37.5,97.5C 38.5,97.5 39.5,97.5 40.5,97.5C 40.5,98.5 40.5,99.5 40.5,100.5C 45.7318,100.672 50.7318,101.672 55.5,103.5C 56.1667,103.333 56.8333,103.167 57.5,103C 56.6433,102.311 55.9767,101.478 55.5,100.5C 58.0865,99.52 60.7531,99.1866 63.5,99.5C 66.2075,104.011 67.5408,109.011 67.5,114.5C 67.4258,120.058 68.4258,125.391 70.5,130.5C 69.844,132.618 69.5107,134.618 69.5,136.5C 66.7309,136.2 64.2309,135.2 62,133.5C 61.5,133.833 61,134.167 60.5,134.5C 61.4066,137.421 61.7399,140.421 61.5,143.5C 59.396,143.799 57.396,143.466 55.5,142.5C 57.8541,140.754 58.8541,138.421 58.5,135.5C 57.1779,135.67 56.0113,135.337 55,134.5C 53.5993,136.192 51.7659,136.859 49.5,136.5C 49.5,137.5 49.5,138.5 49.5,139.5C 50.9778,139.238 52.3112,139.571 53.5,140.5C 51.8333,141.833 50.1667,141.833 48.5,140.5C 47.5934,137.579 47.2601,134.579 47.5,131.5C 44.8333,131.5 42.1667,131.5 39.5,131.5C 39.5,130.5 39.5,129.5 39.5,128.5C 36.8333,128.5 34.1667,128.5 31.5,128.5C 31.2148,130.288 31.5481,131.955 32.5,133.5C 36.1594,134.101 39.8261,134.767 43.5,135.5C 42.4425,135.906 41.1092,135.906 39.5,135.5C 40.8055,141.362 38.4721,143.862 32.5,143C 31.8139,146.522 29.8139,149.022 26.5,150.5C 27.8333,152.5 27.8333,154.5 26.5,156.5C 28.1592,159.433 30.4925,160.1 33.5,158.5C 28.6563,153.043 29.6563,149.377 36.5,147.5C 36.67,148.822 36.3366,149.989 35.5,151C 38.7991,149.657 40.4658,150.824 40.5,154.5C 37.7984,157.391 35.6318,160.724 34,164.5C 33.6667,164.167 33.3333,163.833 33,163.5C 31.9914,165.025 31.4914,166.692 31.5,168.5C 28.234,168.433 26.734,170.099 27,173.5C 23.736,174.177 21.236,175.843 19.5,178.5C 18.2264,177.811 18.2264,176.977 19.5,176C 18.552,175.517 17.552,175.351 16.5,175.5C 16.6641,172.813 16.4974,170.146 16,167.5C 15.5172,168.448 15.3505,169.448 15.5,170.5C 12.3623,169.874 9.8623,168.208 8,165.5C 7.33333,168.167 6.66667,168.167 6,165.5C 5.41692,167.002 4.58359,168.335 3.5,169.5C 2.26381,168.754 0.930472,168.421 -0.5,168.5C -0.5,142.167 -0.5,115.833 -0.5,89.5C 6.14463,87.0384 12.478,83.8718 18.5,80C 23.9432,78.3716 29.2765,78.205 34.5,79.5 Z"/></g>
<g><path style="opacity:1" fill="#677888" d="M 60.5,86.5 C 65.9194,88.0444 70.9194,90.3777 75.5,93.5C 74.469,94.2485 73.3024,94.9152 72,95.5C 71.5604,97.0762 70.727,98.4096 69.5,99.5C 70.0983,100.795 70.5983,102.128 71,103.5C 71.3333,102.5 71.6667,101.5 72,100.5C 73.6255,103.613 73.7922,106.779 72.5,110C 75.2958,112.033 75.9624,115.2 74.5,119.5C 76.2537,123.739 78.587,127.572 81.5,131C 81.0528,135.114 81.0528,139.28 81.5,143.5C 81.2792,146.097 80.7792,146.097 80,143.5C 79.654,145.218 79.154,146.885 78.5,148.5C 79.376,149.251 80.376,149.751 81.5,150C 80.9011,151.622 80.2344,153.122 79.5,154.5C 77.6588,149.643 75.9921,144.643 74.5,139.5C 72.6121,130.937 70.2787,122.603 67.5,114.5C 67.5408,109.011 66.2075,104.011 63.5,99.5C 62.9951,96.6568 61.9951,93.9902 60.5,91.5C 61.5791,89.7473 61.5791,88.0806 60.5,86.5 Z"/></g>
<g><path style="opacity:1" fill="#49648b" d="M 186.5,128.5 C 185.448,128.351 184.448,128.517 183.5,129C 184.833,129.667 184.833,130.333 183.5,131C 180.901,131.769 178.401,131.602 176,130.5C 175.536,131.094 175.369,131.761 175.5,132.5C 175.5,133.5 175.5,134.5 175.5,135.5C 173.833,135.5 172.167,135.5 170.5,135.5C 170.716,133.319 169.883,131.653 168,130.5C 167.692,131.308 167.192,131.975 166.5,132.5C 165.109,131.355 163.776,131.355 162.5,132.5C 162.709,133.086 163.043,133.586 163.5,134C 162.207,134.49 160.873,134.657 159.5,134.5C 159.675,131.671 158.342,130.004 155.5,129.5C 156.506,128.604 156.506,127.938 155.5,127.5C 151.679,129.944 147.679,130.11 143.5,128C 145.577,127.808 147.577,127.308 149.5,126.5C 145.136,125.991 140.97,124.991 137,123.5C 134.282,125.634 131.616,125.301 129,122.5C 127.297,123.7 125.797,123.367 124.5,121.5C 125.729,120.719 127.062,120.219 128.5,120C 126.5,119 124.5,118 122.5,117C 123.167,116.667 123.833,116.333 124.5,116C 122.963,114.89 122.297,113.39 122.5,111.5C 120.833,111.5 119.167,111.5 117.5,111.5C 117.273,115.257 116.94,118.757 116.5,122C 118.81,122.497 121.143,122.663 123.5,122.5C 123.5,123.5 123.5,124.5 123.5,125.5C 126.755,126.579 130.088,127.579 133.5,128.5C 131.885,131.45 129.885,134.116 127.5,136.5C 129.203,136.149 130.87,136.816 132.5,138.5C 131.167,139.167 129.833,139.833 128.5,140.5C 122.456,141.504 116.456,142.504 110.5,143.5C 109.842,142.207 109.508,140.707 109.5,139C 110.951,129.932 112.285,120.765 113.5,111.5C 113.995,109.518 114.495,107.518 115,105.5C 115.671,104.748 116.504,104.414 117.5,104.5C 121.24,104.241 124.906,104.574 128.5,105.5C 136.067,103.696 143.734,103.196 151.5,104C 162.028,114.066 173.694,122.232 186.5,128.5 Z"/></g>
<g><path style="opacity:1" fill="#4f637b" d="M 67.5,114.5 C 70.2787,122.603 72.6121,130.937 74.5,139.5C 72.5887,138.925 70.922,137.925 69.5,136.5C 69.5107,134.618 69.844,132.618 70.5,130.5C 68.4258,125.391 67.4258,120.058 67.5,114.5 Z"/></g>
<g><path style="opacity:1" fill="#63717b" d="M 109.5,127.5 C 108.566,128.568 108.232,129.901 108.5,131.5C 107.5,131.5 106.5,131.5 105.5,131.5C 105.433,133.401 105.767,135.234 106.5,137C 104.298,140.329 102.964,143.995 102.5,148C 102.167,148.5 101.833,149 101.5,149.5C 100.232,147.696 99.5652,145.696 99.5,143.5C 100.208,141.622 101.374,139.955 103,138.5C 103.141,134.411 103.308,130.411 103.5,126.5C 105.413,125.627 107.247,124.627 109,123.5C 109.49,124.793 109.657,126.127 109.5,127.5 Z"/></g>
<g><path style="opacity:1" fill="#3f5d85" d="M 69.5,136.5 C 70.922,137.925 72.5887,138.925 74.5,139.5C 75.9921,144.643 77.6588,149.643 79.5,154.5C 79.5,156.167 79.5,157.833 79.5,159.5C 79.9504,164.202 80.617,168.868 81.5,173.5C 82.5,173.5 83.5,173.5 84.5,173.5C 84.3256,176.874 83.8256,180.207 83,183.5C 80.9285,184.525 78.7619,185.358 76.5,186C 74.9632,187.11 74.2965,188.61 74.5,190.5C 77.5983,190.413 77.9316,190.913 75.5,192C 77.7411,193.739 79.4078,195.906 80.5,198.5C 77.8993,199.048 74.7326,199.048 71,198.5C 70.5883,200.997 69.4216,202.997 67.5,204.5C 66.9006,200.442 65.5672,196.775 63.5,193.5C 63.5507,191.9 63.8841,190.4 64.5,189C 60.381,187.343 56.2143,185.843 52,184.5C 49.1556,187.078 46.6556,189.912 44.5,193C 45.448,193.483 46.448,193.649 47.5,193.5C 47.3367,195.857 47.5034,198.19 48,200.5C 49.0113,199.663 50.1779,199.33 51.5,199.5C 51.3802,202.205 52.3802,202.872 54.5,201.5C 54.8333,202.333 55.1667,203.167 55.5,204C 54.5819,206.086 53.9153,208.253 53.5,210.5C 50.6421,210.972 48.6421,209.972 47.5,207.5C 46.8333,207.5 46.1667,207.5 45.5,207.5C 44.0515,204.949 44.3848,202.615 46.5,200.5C 45.6086,199.41 44.6086,199.41 43.5,200.5C 42.5723,198.665 41.4056,198.332 40,199.5C 39.3156,195.907 37.8156,195.573 35.5,198.5C 34.3441,197.424 34.5108,196.424 36,195.5C 37.3351,191.392 36.1684,188.392 32.5,186.5C 35.2293,185.363 37.896,184.03 40.5,182.5C 39.0302,180.518 39.3636,178.852 41.5,177.5C 36.376,176.782 35.376,174.448 38.5,170.5C 39.7362,169.754 41.0695,169.421 42.5,169.5C 42.5,168.167 42.5,166.833 42.5,165.5C 46.0091,165.192 47.6757,163.192 47.5,159.5C 49.5,159.5 51.5,159.5 53.5,159.5C 55.0325,163.906 56.0325,168.573 56.5,173.5C 59.8989,175.312 63.5656,175.979 67.5,175.5C 69.0201,178.551 69.6868,181.551 69.5,184.5C 70.9675,183.305 72.4675,183.305 74,184.5C 76.7081,182.289 79.2081,179.955 81.5,177.5C 80.3594,174.245 79.5261,170.911 79,167.5C 78.6667,169.167 78.3333,170.833 78,172.5C 77.7489,170.567 77.2489,168.734 76.5,167C 77.1667,166.667 77.8333,166.333 78.5,166C 76.4503,164.364 75.4503,162.198 75.5,159.5C 74.1667,159.5 72.8333,159.5 71.5,159.5C 71.0842,154.087 71.0842,148.754 71.5,143.5C 73.1368,141.876 72.8034,140.876 70.5,140.5C 68.2178,141.223 65.8845,141.557 63.5,141.5C 63.9594,149.708 59.9594,153.708 51.5,153.5C 49.5136,153.213 47.6803,152.547 46,151.5C 43.9149,152.124 42.0816,153.124 40.5,154.5C 40.4658,150.824 38.7991,149.657 35.5,151C 36.3366,149.989 36.67,148.822 36.5,147.5C 29.6563,149.377 28.6563,153.043 33.5,158.5C 30.4925,160.1 28.1592,159.433 26.5,156.5C 27.8333,154.5 27.8333,152.5 26.5,150.5C 29.8139,149.022 31.8139,146.522 32.5,143C 38.4721,143.862 40.8055,141.362 39.5,135.5C 41.1092,135.906 42.4425,135.906 43.5,135.5C 39.8261,134.767 36.1594,134.101 32.5,133.5C 31.5481,131.955 31.2148,130.288 31.5,128.5C 34.1667,128.5 36.8333,128.5 39.5,128.5C 39.5,129.5 39.5,130.5 39.5,131.5C 42.1667,131.5 44.8333,131.5 47.5,131.5C 47.2601,134.579 47.5934,137.579 48.5,140.5C 50.1667,141.833 51.8333,141.833 53.5,140.5C 52.3112,139.571 50.9778,139.238 49.5,139.5C 49.5,138.5 49.5,137.5 49.5,136.5C 51.7659,136.859 53.5993,136.192 55,134.5C 56.0113,135.337 57.1779,135.67 58.5,135.5C 58.8541,138.421 57.8541,140.754 55.5,142.5C 57.396,143.466 59.396,143.799 61.5,143.5C 61.7399,140.421 61.4066,137.421 60.5,134.5C 61,134.167 61.5,133.833 62,133.5C 64.2309,135.2 66.7309,136.2 69.5,136.5 Z"/></g>
<g><path style="opacity:1" fill="#4f628a" d="M 86.5,127.5 C 87.2485,128.531 87.9152,129.698 88.5,131C 87.6517,134.256 86.985,137.589 86.5,141C 87.0519,146.66 87.7185,152.16 88.5,157.5C 88.6309,158.376 88.2975,159.043 87.5,159.5C 86.6364,155.198 85.9697,150.864 85.5,146.5C 85.3601,144.97 84.6935,143.97 83.5,143.5C 83.0409,138.266 82.3742,133.1 81.5,128C 83.1341,127.506 84.8008,127.34 86.5,127.5 Z"/></g>
<g><path style="opacity:1" fill="#46638b" d="M 175.5,138.5 C 175.5,140.167 175.5,141.833 175.5,143.5C 171.5,143.833 171.5,144.167 175.5,144.5C 175.5,147.833 175.5,151.167 175.5,154.5C 174.167,154.5 172.833,154.5 171.5,154.5C 171.5,153.5 171.5,152.5 171.5,151.5C 170.178,151.67 169.011,151.337 168,150.5C 167.51,151.793 167.343,153.127 167.5,154.5C 164.833,154.5 162.167,154.5 159.5,154.5C 159.5,153.5 159.5,152.5 159.5,151.5C 154.432,151.601 152.099,154.267 152.5,159.5C 151.127,159.657 149.793,159.49 148.5,159C 149.696,158.346 149.696,157.846 148.5,157.5C 147.15,158.95 145.484,159.617 143.5,159.5C 143.5,161.833 143.5,164.167 143.5,166.5C 141.031,165.933 138.698,165.933 136.5,166.5C 135.663,166.389 134.663,166.056 133.5,165.5C 132.919,162.625 131.919,159.958 130.5,157.5C 129.808,158.025 129.308,158.692 129,159.5C 126.819,155.518 127.319,151.852 130.5,148.5C 132.195,149.292 133.862,148.958 135.5,147.5C 132.252,144.795 132.085,142.128 135,139.5C 135.684,140.784 135.517,141.951 134.5,143C 135.047,143.925 135.713,144.758 136.5,145.5C 136.833,145.167 137.167,144.833 137.5,144.5C 136.756,141.557 136.256,138.557 136,135.5C 134.951,136.517 133.784,136.684 132.5,136C 134.65,133.959 135.65,131.459 135.5,128.5C 138.487,129.258 141.487,130.091 144.5,131C 144.167,131.333 143.833,131.667 143.5,132C 146.11,132.147 148.444,132.981 150.5,134.5C 151.167,133.833 151.833,133.167 152.5,132.5C 153.999,135.41 156.333,137.076 159.5,137.5C 159.238,138.978 159.571,140.311 160.5,141.5C 165.223,139.118 170.223,138.118 175.5,138.5 Z"/></g>
<g><path style="opacity:1" fill="#65757f" d="M 81.5,143.5 C 82.1667,143.5 82.8333,143.5 83.5,143.5C 84.6935,143.97 85.3601,144.97 85.5,146.5C 85.9697,150.864 86.6364,155.198 87.5,159.5C 88.2975,159.043 88.6309,158.376 88.5,157.5C 89.3136,152.881 89.6469,148.214 89.5,143.5C 90.5,143.5 91.5,143.5 92.5,143.5C 92.5,148.833 92.5,154.167 92.5,159.5C 91.6236,159.369 90.9569,159.702 90.5,160.5C 93.2308,163.959 94.2308,167.959 93.5,172.5C 92.1667,172.5 90.8333,172.5 89.5,172.5C 89.665,169.15 89.4983,165.817 89,162.5C 88.3333,163.833 87.3333,164.833 86,165.5C 85.6667,167.5 85.3333,169.5 85,171.5C 84.2904,170.027 83.1238,169.36 81.5,169.5C 81.8412,165.84 81.1745,162.507 79.5,159.5C 79.5,157.833 79.5,156.167 79.5,154.5C 80.2344,153.122 80.9011,151.622 81.5,150C 80.376,149.751 79.376,149.251 78.5,148.5C 79.154,146.885 79.654,145.218 80,143.5C 80.7792,146.097 81.2792,146.097 81.5,143.5 Z"/></g>
<g><path style="opacity:1" fill="#79858f" d="M 109.5,127.5 C 108.394,136.487 106.06,145.154 102.5,153.5C 103.156,155.453 103.489,157.453 103.5,159.5C 102.778,159.082 102.278,158.416 102,157.5C 101.002,160.028 100.169,160.028 99.5,157.5C 100.167,156.167 100.833,154.833 101.5,153.5C 101.167,152.833 100.833,152.167 100.5,151.5C 99.8182,152.243 99.1515,152.909 98.5,153.5C 98.1872,149.958 98.5206,146.625 99.5,143.5C 99.5652,145.696 100.232,147.696 101.5,149.5C 101.833,149 102.167,148.5 102.5,148C 102.964,143.995 104.298,140.329 106.5,137C 105.767,135.234 105.433,133.401 105.5,131.5C 106.5,131.5 107.5,131.5 108.5,131.5C 108.232,129.901 108.566,128.568 109.5,127.5 Z"/></g>
<g><path style="opacity:1" fill="#52698e" d="M 175.5,132.5 C 176.64,136.927 178.306,137.26 180.5,133.5C 181.631,134.751 182.964,135.751 184.5,136.5C 185.442,136.392 186.275,136.059 187,135.5C 191.265,136.035 195.432,136.869 199.5,138C 194.913,138.799 190.413,138.632 186,137.5C 185.573,140.493 184.406,140.993 182.5,139C 180.19,138.503 177.857,138.337 175.5,138.5C 170.223,138.118 165.223,139.118 160.5,141.5C 159.571,140.311 159.238,138.978 159.5,137.5C 156.333,137.076 153.999,135.41 152.5,132.5C 151.833,133.167 151.167,133.833 150.5,134.5C 148.444,132.981 146.11,132.147 143.5,132C 143.833,131.667 144.167,131.333 144.5,131C 141.487,130.091 138.487,129.258 135.5,128.5C 135.65,131.459 134.65,133.959 132.5,136C 133.784,136.684 134.951,136.517 136,135.5C 136.256,138.557 136.756,141.557 137.5,144.5C 137.167,144.833 136.833,145.167 136.5,145.5C 135.713,144.758 135.047,143.925 134.5,143C 135.517,141.951 135.684,140.784 135,139.5C 132.085,142.128 132.252,144.795 135.5,147.5C 133.862,148.958 132.195,149.292 130.5,148.5C 127.319,151.852 126.819,155.518 129,159.5C 129.308,158.692 129.808,158.025 130.5,157.5C 131.919,159.958 132.919,162.625 133.5,165.5C 134.663,166.056 135.663,166.389 136.5,166.5C 135.791,167.404 134.791,167.737 133.5,167.5C 133.5,168.833 133.5,170.167 133.5,171.5C 131.501,170.143 130.335,170.81 130,173.5C 129.015,171.825 128.181,170.158 127.5,168.5C 123.425,165.896 119.091,163.73 114.5,162C 113.953,161.075 113.287,160.242 112.5,159.5C 111.828,162.897 110.995,166.23 110,169.5C 107.273,171.416 104.773,173.416 102.5,175.5C 102.896,171.625 103.562,167.792 104.5,164C 103.852,162.56 103.519,161.06 103.5,159.5C 104.5,159.5 105.5,159.5 106.5,159.5C 105.585,154.539 105.585,149.539 106.5,144.5C 108.099,144.768 109.432,144.434 110.5,143.5C 116.456,142.504 122.456,141.504 128.5,140.5C 129.833,139.833 131.167,139.167 132.5,138.5C 130.87,136.816 129.203,136.149 127.5,136.5C 129.885,134.116 131.885,131.45 133.5,128.5C 130.088,127.579 126.755,126.579 123.5,125.5C 123.5,124.5 123.5,123.5 123.5,122.5C 121.143,122.663 118.81,122.497 116.5,122C 116.94,118.757 117.273,115.257 117.5,111.5C 119.167,111.5 120.833,111.5 122.5,111.5C 122.297,113.39 122.963,114.89 124.5,116C 123.833,116.333 123.167,116.667 122.5,117C 124.5,118 126.5,119 128.5,120C 127.062,120.219 125.729,120.719 124.5,121.5C 125.797,123.367 127.297,123.7 129,122.5C 131.616,125.301 134.282,125.634 137,123.5C 140.97,124.991 145.136,125.991 149.5,126.5C 147.577,127.308 145.577,127.808 143.5,128C 147.679,130.11 151.679,129.944 155.5,127.5C 156.506,127.938 156.506,128.604 155.5,129.5C 158.342,130.004 159.675,131.671 159.5,134.5C 160.873,134.657 162.207,134.49 163.5,134C 163.043,133.586 162.709,133.086 162.5,132.5C 163.776,131.355 165.109,131.355 166.5,132.5C 167.192,131.975 167.692,131.308 168,130.5C 169.883,131.653 170.716,133.319 170.5,135.5C 172.167,135.5 173.833,135.5 175.5,135.5C 175.5,134.5 175.5,133.5 175.5,132.5 Z"/></g>
<g><path style="opacity:1" fill="#4a6385" d="M 186.5,128.5 C 191.129,130.815 195.796,133.148 200.5,135.5C 200.5,145.833 200.5,156.167 200.5,166.5C 198.262,165.463 195.929,165.297 193.5,166C 194.167,166.333 194.833,166.667 195.5,167C 193.527,167.495 191.527,167.662 189.5,167.5C 189.649,168.552 189.483,169.552 189,170.5C 188,169.167 187,169.167 186,170.5C 185.667,169.5 185.333,168.5 185,167.5C 181.558,167.976 178.558,169.31 176,171.5C 171.593,171.646 168.926,169.646 168,165.5C 166.686,164.687 165.519,163.687 164.5,162.5C 162.88,165.058 161.38,165.058 160,162.5C 156.289,164.037 152.455,165.37 148.5,166.5C 146.32,165.413 144.653,165.413 143.5,166.5C 143.5,164.167 143.5,161.833 143.5,159.5C 145.484,159.617 147.15,158.95 148.5,157.5C 149.696,157.846 149.696,158.346 148.5,159C 149.793,159.49 151.127,159.657 152.5,159.5C 152.099,154.267 154.432,151.601 159.5,151.5C 159.5,152.5 159.5,153.5 159.5,154.5C 162.167,154.5 164.833,154.5 167.5,154.5C 167.343,153.127 167.51,151.793 168,150.5C 169.011,151.337 170.178,151.67 171.5,151.5C 171.5,152.5 171.5,153.5 171.5,154.5C 172.833,154.5 174.167,154.5 175.5,154.5C 175.5,151.167 175.5,147.833 175.5,144.5C 171.5,144.167 171.5,143.833 175.5,143.5C 175.5,141.833 175.5,140.167 175.5,138.5C 177.857,138.337 180.19,138.503 182.5,139C 184.406,140.993 185.573,140.493 186,137.5C 190.413,138.632 194.913,138.799 199.5,138C 195.432,136.869 191.265,136.035 187,135.5C 186.275,136.059 185.442,136.392 184.5,136.5C 182.964,135.751 181.631,134.751 180.5,133.5C 178.306,137.26 176.64,136.927 175.5,132.5C 175.369,131.761 175.536,131.094 176,130.5C 178.401,131.602 180.901,131.769 183.5,131C 184.833,130.333 184.833,129.667 183.5,129C 184.448,128.517 185.448,128.351 186.5,128.5 Z"/></g>
<g><path style="opacity:1" fill="#617283" d="M 103.5,159.5 C 103.519,161.06 103.852,162.56 104.5,164C 103.562,167.792 102.896,171.625 102.5,175.5C 101.5,175.5 100.5,175.5 99.5,175.5C 96.4978,170.486 95.8312,165.152 97.5,159.5C 98.4614,157.735 98.7947,155.735 98.5,153.5C 99.1515,152.909 99.8182,152.243 100.5,151.5C 100.833,152.167 101.167,152.833 101.5,153.5C 100.833,154.833 100.167,156.167 99.5,157.5C 100.169,160.028 101.002,160.028 102,157.5C 102.278,158.416 102.778,159.082 103.5,159.5 Z"/></g>
<g><path style="opacity:1" fill="#496386" d="M 71.5,143.5 C 71.0842,148.754 71.0842,154.087 71.5,159.5C 72.8333,159.5 74.1667,159.5 75.5,159.5C 75.4503,162.198 76.4503,164.364 78.5,166C 77.8333,166.333 77.1667,166.667 76.5,167C 77.2489,168.734 77.7489,170.567 78,172.5C 78.3333,170.833 78.6667,169.167 79,167.5C 79.5261,170.911 80.3594,174.245 81.5,177.5C 79.2081,179.955 76.7081,182.289 74,184.5C 72.4675,183.305 70.9675,183.305 69.5,184.5C 69.6868,181.551 69.0201,178.551 67.5,175.5C 63.5656,175.979 59.8989,175.312 56.5,173.5C 56.0325,168.573 55.0325,163.906 53.5,159.5C 54.552,159.649 55.552,159.483 56.5,159C 55.6634,157.989 55.33,156.822 55.5,155.5C 58.1667,154.833 60.8333,154.167 63.5,153.5C 63.5,155.5 63.5,157.5 63.5,159.5C 64.5,159.5 65.5,159.5 66.5,159.5C 66.5,154.167 66.5,148.833 66.5,143.5C 68.1667,143.5 69.8333,143.5 71.5,143.5 Z"/></g>
<g><path style="opacity:1" fill="#3c5c85" d="M 127.5,168.5 C 127.5,172.833 127.5,177.167 127.5,181.5C 129.5,182.167 131.5,182.833 133.5,183.5C 133.833,186.167 134.167,188.833 134.5,191.5C 128.491,191.334 122.491,191.501 116.5,192C 117.624,192.249 118.624,192.749 119.5,193.5C 118.74,195.36 117.74,197.027 116.5,198.5C 114.957,200.57 113.624,202.903 112.5,205.5C 112.833,207.833 113.833,208.167 115.5,206.5C 116.308,206.808 116.975,207.308 117.5,208C 116,208.5 114.5,209 113,209.5C 111.403,208.115 109.57,207.449 107.5,207.5C 107.5,209.5 107.5,211.5 107.5,213.5C 110.168,213.666 112.502,214.666 114.5,216.5C 115.386,217.325 115.719,218.325 115.5,219.5C 113.517,219.157 112.183,219.824 111.5,221.5C 111.38,222.586 110.713,223.253 109.5,223.5C 107.667,221.378 105.667,219.378 103.5,217.5C 101.739,218.035 100.406,219.035 99.5,220.5C 98.3871,219.054 98.2204,217.387 99,215.5C 99.8786,213.021 101.379,211.021 103.5,209.5C 104.246,208.264 104.579,206.93 104.5,205.5C 105.159,202.592 105.993,202.258 107,204.5C 108,203.5 109,202.5 110,201.5C 110.408,198.58 111.741,196.246 114,194.5C 114.889,191.313 115.722,188.147 116.5,185C 112.254,183.987 108.42,184.82 105,187.5C 104.228,187.355 103.561,187.022 103,186.5C 102.148,189.522 100.648,192.189 98.5,194.5C 95.2259,191.039 95.8926,189.373 100.5,189.5C 99.2758,187.18 97.9425,184.847 96.5,182.5C 97.5431,180.144 98.5431,177.81 99.5,175.5C 100.5,175.5 101.5,175.5 102.5,175.5C 104.773,173.416 107.273,171.416 110,169.5C 110.995,166.23 111.828,162.897 112.5,159.5C 113.287,160.242 113.953,161.075 114.5,162C 119.091,163.73 123.425,165.896 127.5,168.5 Z"/></g>
<g><path style="opacity:1" fill="#2a5381" d="M 71.5,143.5 C 69.8333,143.5 68.1667,143.5 66.5,143.5C 66.5,148.833 66.5,154.167 66.5,159.5C 65.5,159.5 64.5,159.5 63.5,159.5C 63.5,157.5 63.5,155.5 63.5,153.5C 60.8333,154.167 58.1667,154.833 55.5,155.5C 55.33,156.822 55.6634,157.989 56.5,159C 55.552,159.483 54.552,159.649 53.5,159.5C 51.5,159.5 49.5,159.5 47.5,159.5C 47.6757,163.192 46.0091,165.192 42.5,165.5C 42.5,166.833 42.5,168.167 42.5,169.5C 41.0695,169.421 39.7362,169.754 38.5,170.5C 35.376,174.448 36.376,176.782 41.5,177.5C 39.3636,178.852 39.0302,180.518 40.5,182.5C 37.896,184.03 35.2293,185.363 32.5,186.5C 31.4733,183.282 31.3066,179.949 32,176.5C 29.0576,178.328 27.8909,180.995 28.5,184.5C 23.8319,184.654 20.8319,182.654 19.5,178.5C 21.236,175.843 23.736,174.177 27,173.5C 26.734,170.099 28.234,168.433 31.5,168.5C 31.4914,166.692 31.9914,165.025 33,163.5C 33.3333,163.833 33.6667,164.167 34,164.5C 35.6318,160.724 37.7984,157.391 40.5,154.5C 42.0816,153.124 43.9149,152.124 46,151.5C 47.6803,152.547 49.5136,153.213 51.5,153.5C 59.9594,153.708 63.9594,149.708 63.5,141.5C 65.8845,141.557 68.2178,141.223 70.5,140.5C 72.8034,140.876 73.1368,141.876 71.5,143.5 Z"/></g>
<g><path style="opacity:1" fill="#546988" d="M 200.5,166.5 C 200.5,170.5 200.5,174.5 200.5,178.5C 195.287,178.391 190.287,177.391 185.5,175.5C 184.987,177.29 184.487,178.956 184,180.5C 185.388,179.446 186.888,179.28 188.5,180C 186.795,183.715 184.295,186.882 181,189.5C 181.652,186.228 180.152,183.895 176.5,182.5C 175.304,182.846 175.304,183.346 176.5,184C 175.552,184.483 174.552,184.649 173.5,184.5C 173.616,181.14 173.949,177.807 174.5,174.5C 172.265,174.205 170.265,174.539 168.5,175.5C 166.833,175.5 165.167,175.5 163.5,175.5C 159.633,176.729 155.8,176.729 152,175.5C 151.781,176.938 151.281,178.271 150.5,179.5C 149.264,178.754 147.93,178.421 146.5,178.5C 146.234,174.921 144.901,174.587 142.5,177.5C 143.167,178.167 143.833,178.833 144.5,179.5C 140.684,181.203 138.85,179.87 139,175.5C 137.188,174.023 135.355,172.69 133.5,171.5C 133.5,170.167 133.5,168.833 133.5,167.5C 134.791,167.737 135.791,167.404 136.5,166.5C 138.698,165.933 141.031,165.933 143.5,166.5C 144.653,165.413 146.32,165.413 148.5,166.5C 152.455,165.37 156.289,164.037 160,162.5C 161.38,165.058 162.88,165.058 164.5,162.5C 165.519,163.687 166.686,164.687 168,165.5C 168.926,169.646 171.593,171.646 176,171.5C 178.558,169.31 181.558,167.976 185,167.5C 185.333,168.5 185.667,169.5 186,170.5C 187,169.167 188,169.167 189,170.5C 189.483,169.552 189.649,168.552 189.5,167.5C 191.527,167.662 193.527,167.495 195.5,167C 194.833,166.667 194.167,166.333 193.5,166C 195.929,165.297 198.262,165.463 200.5,166.5 Z"/></g>
<g><path style="opacity:1" fill="#4a6080" d="M 19.5,178.5 C 20.8319,182.654 23.8319,184.654 28.5,184.5C 27.8909,180.995 29.0576,178.328 32,176.5C 31.3066,179.949 31.4733,183.282 32.5,186.5C 36.1684,188.392 37.3351,191.392 36,195.5C 34.5108,196.424 34.3441,197.424 35.5,198.5C 37.8156,195.573 39.3156,195.907 40,199.5C 41.4056,198.332 42.5723,198.665 43.5,200.5C 44.6086,199.41 45.6086,199.41 46.5,200.5C 44.3848,202.615 44.0515,204.949 45.5,207.5C 43.8235,206.817 43.1568,205.483 43.5,203.5C 41.4086,203.682 39.4086,203.348 37.5,202.5C 36.2888,203.274 36.2888,204.107 37.5,205C 34.9922,206.903 32.1589,208.07 29,208.5C 26.2929,205.293 23.1263,202.627 19.5,200.5C 18.1861,201.313 17.0195,202.313 16,203.5C 15.51,202.207 15.3433,200.873 15.5,199.5C 11.6831,200.305 9.0164,202.638 7.5,206.5C 15.0326,206.983 22.366,208.15 29.5,210C 31.3551,211.855 33.1884,213.688 35,215.5C 36.4397,216.148 37.9397,216.481 39.5,216.5C 39.5,217.5 39.5,218.5 39.5,219.5C 37.712,219.215 36.0453,219.548 34.5,220.5C 37.1347,221.272 39.8014,221.438 42.5,221C 43.9711,222.583 44.9711,224.417 45.5,226.5C 44.5,226.5 43.5,226.5 42.5,226.5C 42.6495,227.552 42.4828,228.552 42,229.5C 41.7479,225.274 39.5812,223.274 35.5,223.5C 29.3693,225.757 23.0359,227.091 16.5,227.5C 15.8755,223.995 16.8755,221.162 19.5,219C 20.6454,216.801 20.6454,214.635 19.5,212.5C 17.1193,215.063 15.786,218.063 15.5,221.5C 14.5,221.5 13.5,221.5 12.5,221.5C 12.5,222.833 12.5,224.167 12.5,225.5C 8.16667,225.5 3.83333,225.5 -0.5,225.5C -0.5,206.5 -0.5,187.5 -0.5,168.5C 0.930472,168.421 2.26381,168.754 3.5,169.5C 4.58359,168.335 5.41692,167.002 6,165.5C 6.66667,168.167 7.33333,168.167 8,165.5C 9.8623,168.208 12.3623,169.874 15.5,170.5C 15.3505,169.448 15.5172,168.448 16,167.5C 16.4974,170.146 16.6641,172.813 16.5,175.5C 17.552,175.351 18.552,175.517 19.5,176C 18.2264,176.977 18.2264,177.811 19.5,178.5 Z"/></g>
<g><path style="opacity:1" fill="#526886" d="M 134.5,191.5 C 135.978,191.238 137.311,191.571 138.5,192.5C 134.923,198.419 130.923,204.086 126.5,209.5C 124.885,208.846 123.218,208.346 121.5,208C 122.406,206.301 122.739,204.467 122.5,202.5C 119.735,202.29 117.735,200.957 116.5,198.5C 117.74,197.027 118.74,195.36 119.5,193.5C 118.624,192.749 117.624,192.249 116.5,192C 122.491,191.501 128.491,191.334 134.5,191.5 Z"/></g>
<g><path style="opacity:1" fill="#275281" d="M 163.5,175.5 C 165.167,175.5 166.833,175.5 168.5,175.5C 169.552,175.351 170.552,175.517 171.5,176C 170.253,177.458 170.253,178.958 171.5,180.5C 171.099,182.434 170.099,183.934 168.5,185C 168.957,185.414 169.291,185.914 169.5,186.5C 167.118,190.239 163.785,192.239 159.5,192.5C 159.665,195.85 159.498,199.183 159,202.5C 157.308,204.245 155.475,204.578 153.5,203.5C 154.325,202.614 155.325,202.281 156.5,202.5C 156.5,201.5 156.5,200.5 156.5,199.5C 155.167,199.5 153.833,199.5 152.5,199.5C 152.5,200.833 152.5,202.167 152.5,203.5C 151.5,203.5 150.5,203.5 149.5,203.5C 149.585,206.747 148.585,209.581 146.5,212C 147.308,212.308 147.975,212.808 148.5,213.5C 146.833,214.167 145.167,214.833 143.5,215.5C 143.833,216.5 144.5,217.167 145.5,217.5C 146.265,216.388 147.265,215.721 148.5,215.5C 148.585,216.995 147.919,217.995 146.5,218.5C 145.675,222.122 145.175,225.789 145,229.5C 143.021,230.714 141.521,232.381 140.5,234.5C 139.914,234.291 139.414,233.957 139,233.5C 138.505,231.527 138.338,229.527 138.5,227.5C 135.047,228.143 131.881,229.476 129,231.5C 127.433,230.144 125.6,229.477 123.5,229.5C 122.178,229.33 121.011,229.663 120,230.5C 119.517,229.552 119.351,228.552 119.5,227.5C 117.658,227.277 115.825,226.943 114,226.5C 112.674,226.755 111.674,227.422 111,228.5C 110.692,227.692 110.192,227.025 109.5,226.5C 107.997,227.052 106.331,227.052 104.5,226.5C 104.5,225.5 104.5,224.5 104.5,223.5C 102.473,223.662 100.473,223.495 98.5,223C 99.2524,222.329 99.5858,221.496 99.5,220.5C 100.406,219.035 101.739,218.035 103.5,217.5C 105.667,219.378 107.667,221.378 109.5,223.5C 110.713,223.253 111.38,222.586 111.5,221.5C 112.738,222.412 114.072,222.579 115.5,222C 118.627,219.417 121.293,216.417 123.5,213C 125.421,212.64 127.088,211.806 128.5,210.5C 130.615,206.22 133.615,202.72 137.5,200C 136.549,199.282 136.383,198.449 137,197.5C 140.619,193.94 144.452,190.606 148.5,187.5C 147.947,185.273 147.947,182.939 148.5,180.5C 150.833,180.5 153.167,180.5 155.5,180.5C 155.281,179.325 155.614,178.325 156.5,177.5C 159.833,180.416 162.167,179.75 163.5,175.5 Z"/></g>
<g><path style="opacity:1" fill="#30557c" d="M 90.5,201.5 C 89.962,203.117 89.6287,204.784 89.5,206.5C 89.1778,207.858 89.1778,209.525 89.5,211.5C 87.8561,211.286 86.3561,211.62 85,212.5C 84.0147,210.825 83.1814,209.158 82.5,207.5C 82.1866,204.753 82.52,202.086 83.5,199.5C 85.6827,197.293 87.0161,194.626 87.5,191.5C 89.4234,194.521 90.4234,197.854 90.5,201.5 Z"/></g>
<g><path style="opacity:1" fill="#dcd6d2" d="M 95.5,203.5 C 95.5,203.833 95.5,204.167 95.5,204.5C 95.5,205.5 95.5,206.5 95.5,207.5C 94.1667,207.5 92.8333,207.5 91.5,207.5C 91.2148,205.712 91.5481,204.045 92.5,202.5C 93.2508,203.376 93.7508,204.376 94,205.5C 94.2784,204.584 94.7784,203.918 95.5,203.5 Z"/></g>
<g><path style="opacity:1" fill="#496386" d="M 127.5,168.5 C 128.181,170.158 129.015,171.825 130,173.5C 130.335,170.81 131.501,170.143 133.5,171.5C 135.355,172.69 137.188,174.023 139,175.5C 138.85,179.87 140.684,181.203 144.5,179.5C 143.833,178.833 143.167,178.167 142.5,177.5C 144.901,174.587 146.234,174.921 146.5,178.5C 147.93,178.421 149.264,178.754 150.5,179.5C 151.281,178.271 151.781,176.938 152,175.5C 155.8,176.729 159.633,176.729 163.5,175.5C 162.167,179.75 159.833,180.416 156.5,177.5C 155.614,178.325 155.281,179.325 155.5,180.5C 153.167,180.5 150.833,180.5 148.5,180.5C 147.947,182.939 147.947,185.273 148.5,187.5C 144.452,190.606 140.619,193.94 137,197.5C 136.383,198.449 136.549,199.282 137.5,200C 133.615,202.72 130.615,206.22 128.5,210.5C 127.088,211.806 125.421,212.64 123.5,213C 121.293,216.417 118.627,219.417 115.5,222C 114.072,222.579 112.738,222.412 111.5,221.5C 112.183,219.824 113.517,219.157 115.5,219.5C 115.719,218.325 115.386,217.325 114.5,216.5C 112.502,214.666 110.168,213.666 107.5,213.5C 107.5,211.5 107.5,209.5 107.5,207.5C 109.57,207.449 111.403,208.115 113,209.5C 114.5,209 116,208.5 117.5,208C 116.975,207.308 116.308,206.808 115.5,206.5C 113.833,208.167 112.833,207.833 112.5,205.5C 113.624,202.903 114.957,200.57 116.5,198.5C 117.735,200.957 119.735,202.29 122.5,202.5C 122.739,204.467 122.406,206.301 121.5,208C 123.218,208.346 124.885,208.846 126.5,209.5C 130.923,204.086 134.923,198.419 138.5,192.5C 137.311,191.571 135.978,191.238 134.5,191.5C 134.167,188.833 133.833,186.167 133.5,183.5C 131.5,182.833 129.5,182.167 127.5,181.5C 127.5,177.167 127.5,172.833 127.5,168.5 Z"/></g>
<g><path style="opacity:1" fill="#506788" d="M 97.5,159.5 C 95.8312,165.152 96.4978,170.486 99.5,175.5C 98.5431,177.81 97.5431,180.144 96.5,182.5C 97.9425,184.847 99.2758,187.18 100.5,189.5C 95.8926,189.373 95.2259,191.039 98.5,194.5C 100.648,192.189 102.148,189.522 103,186.5C 103.561,187.022 104.228,187.355 105,187.5C 108.42,184.82 112.254,183.987 116.5,185C 115.722,188.147 114.889,191.313 114,194.5C 111.741,196.246 110.408,198.58 110,201.5C 109,202.5 108,203.5 107,204.5C 105.993,202.258 105.159,202.592 104.5,205.5C 101.518,205.037 98.5176,204.704 95.5,204.5C 95.5,204.167 95.5,203.833 95.5,203.5C 95.6882,201.897 95.1882,200.563 94,199.5C 93.1841,200.823 92.0174,201.489 90.5,201.5C 90.4234,197.854 89.4234,194.521 87.5,191.5C 87.0161,194.626 85.6827,197.293 83.5,199.5C 82.52,202.086 82.1866,204.753 82.5,207.5C 81.8386,208.718 81.1719,210.051 80.5,211.5C 79.8333,210.833 79.1667,210.167 78.5,209.5C 76.5847,211.472 74.2514,212.472 71.5,212.5C 71.6495,213.552 71.4828,214.552 71,215.5C 69.6591,212.978 68.8257,210.311 68.5,207.5C 64.8183,207.335 61.1516,207.501 57.5,208C 55.4848,209.555 55.1515,211.389 56.5,213.5C 59.0572,212.18 60.7239,213.013 61.5,216C 63.6524,217.413 65.9857,218.246 68.5,218.5C 68.5,220.167 68.5,221.833 68.5,223.5C 69.8333,223.5 71.1667,223.5 72.5,223.5C 71.6409,225.106 71.4742,226.773 72,228.5C 66.9123,223.734 61.579,219.4 56,215.5C 54.6796,215.799 53.1796,215.966 51.5,216C 54.4237,218.893 54.0904,220.06 50.5,219.5C 49.6184,218.24 48.6184,217.074 47.5,216C 47.8273,213.315 47.8273,210.482 47.5,207.5C 48.6421,209.972 50.6421,210.972 53.5,210.5C 53.9153,208.253 54.5819,206.086 55.5,204C 55.1667,203.167 54.8333,202.333 54.5,201.5C 52.3802,202.872 51.3802,202.205 51.5,199.5C 50.1779,199.33 49.0113,199.663 48,200.5C 47.5034,198.19 47.3367,195.857 47.5,193.5C 46.448,193.649 45.448,193.483 44.5,193C 46.6556,189.912 49.1556,187.078 52,184.5C 56.2143,185.843 60.381,187.343 64.5,189C 63.8841,190.4 63.5507,191.9 63.5,193.5C 65.5672,196.775 66.9006,200.442 67.5,204.5C 69.4216,202.997 70.5883,200.997 71,198.5C 74.7326,199.048 77.8993,199.048 80.5,198.5C 79.4078,195.906 77.7411,193.739 75.5,192C 77.9316,190.913 77.5983,190.413 74.5,190.5C 74.2965,188.61 74.9632,187.11 76.5,186C 78.7619,185.358 80.9285,184.525 83,183.5C 83.8256,180.207 84.3256,176.874 84.5,173.5C 83.5,173.5 82.5,173.5 81.5,173.5C 80.617,168.868 79.9504,164.202 79.5,159.5C 81.1745,162.507 81.8412,165.84 81.5,169.5C 83.1238,169.36 84.2904,170.027 85,171.5C 85.3333,169.5 85.6667,167.5 86,165.5C 87.3333,164.833 88.3333,163.833 89,162.5C 89.4983,165.817 89.665,169.15 89.5,172.5C 90.8333,172.5 92.1667,172.5 93.5,172.5C 94.2308,167.959 93.2308,163.959 90.5,160.5C 90.9569,159.702 91.6236,159.369 92.5,159.5C 93.4881,154.36 93.8214,149.026 93.5,143.5C 94.5,143.5 95.5,143.5 96.5,143.5C 96.6602,141.801 96.4935,140.134 96,138.5C 95.6667,139.5 95.3333,140.5 95,141.5C 93.3534,136.887 93.1868,132.22 94.5,127.5C 95.2978,129.078 95.7978,130.744 96,132.5C 97.6171,131.149 98.7838,129.482 99.5,127.5C 100.5,130 101.5,132.5 102.5,135C 101.727,137.268 100.394,139.101 98.5,140.5C 97.5037,146.798 97.1703,153.132 97.5,159.5 Z"/></g>
<g><path style="opacity:1" fill="#606570" d="M 95.5,203.5 C 94.7784,203.918 94.2784,204.584 94,205.5C 93.7508,204.376 93.2508,203.376 92.5,202.5C 91.5481,204.045 91.2148,205.712 91.5,207.5C 91.2155,209.415 91.5489,211.081 92.5,212.5C 91.9197,216.649 92.5864,220.316 94.5,223.5C 95.4614,225.265 95.7947,227.265 95.5,229.5C 93.549,229.773 92.049,229.107 91,227.5C 90.8285,220.321 90.3285,213.321 89.5,206.5C 89.6287,204.784 89.962,203.117 90.5,201.5C 92.0174,201.489 93.1841,200.823 94,199.5C 95.1882,200.563 95.6882,201.897 95.5,203.5 Z"/></g>
<g><path style="opacity:1" fill="#3c5b80" d="M 168.5,175.5 C 170.265,174.539 172.265,174.205 174.5,174.5C 173.949,177.807 173.616,181.14 173.5,184.5C 174.552,184.649 175.552,184.483 176.5,184C 175.304,183.346 175.304,182.846 176.5,182.5C 180.152,183.895 181.652,186.228 181,189.5C 184.295,186.882 186.795,183.715 188.5,180C 186.888,179.28 185.388,179.446 184,180.5C 184.487,178.956 184.987,177.29 185.5,175.5C 190.287,177.391 195.287,178.391 200.5,178.5C 200.5,188.5 200.5,198.5 200.5,208.5C 195.501,206.834 191.168,207.834 187.5,211.5C 185.101,213.366 182.435,214.699 179.5,215.5C 179.5,216.833 179.5,218.167 179.5,219.5C 178.167,219.5 176.833,219.5 175.5,219.5C 175.762,220.978 175.429,222.311 174.5,223.5C 171.667,224.816 170.834,226.816 172,229.5C 168.134,232.335 164.634,235.502 161.5,239C 159.866,239.494 158.199,239.66 156.5,239.5C 156.708,241.92 156.374,244.253 155.5,246.5C 156.325,247.386 157.325,247.719 158.5,247.5C 160.5,247.5 162.5,247.5 164.5,247.5C 164.5,248.5 164.5,249.5 164.5,250.5C 157.5,250.5 150.5,250.5 143.5,250.5C 143.5,249.5 143.5,248.5 143.5,247.5C 147.386,246.349 149.719,243.682 150.5,239.5C 152.845,237.477 154.845,235.144 156.5,232.5C 156.833,231.667 157.167,230.833 157.5,230C 154.457,225.315 155.79,222.315 161.5,221C 162.793,220.51 164.127,220.343 165.5,220.5C 166.753,213.958 168.253,213.958 170,220.5C 170.499,216.848 170.665,213.182 170.5,209.5C 168.263,210.449 165.929,211.116 163.5,211.5C 164.27,215.751 162.603,218.251 158.5,219C 158.833,219.333 159.167,219.667 159.5,220C 157.681,220.783 156.348,220.283 155.5,218.5C 156.95,217.15 157.617,215.484 157.5,213.5C 154.564,214.406 151.564,215.072 148.5,215.5C 147.265,215.721 146.265,216.388 145.5,217.5C 144.5,217.167 143.833,216.5 143.5,215.5C 145.167,214.833 146.833,214.167 148.5,213.5C 147.975,212.808 147.308,212.308 146.5,212C 148.585,209.581 149.585,206.747 149.5,203.5C 150.5,203.5 151.5,203.5 152.5,203.5C 152.5,202.167 152.5,200.833 152.5,199.5C 153.833,199.5 155.167,199.5 156.5,199.5C 156.5,200.5 156.5,201.5 156.5,202.5C 155.325,202.281 154.325,202.614 153.5,203.5C 155.475,204.578 157.308,204.245 159,202.5C 159.498,199.183 159.665,195.85 159.5,192.5C 163.785,192.239 167.118,190.239 169.5,186.5C 169.291,185.914 168.957,185.414 168.5,185C 170.099,183.934 171.099,182.434 171.5,180.5C 170.253,178.958 170.253,177.458 171.5,176C 170.552,175.517 169.552,175.351 168.5,175.5 Z"/></g>
<g><path style="opacity:1" fill="#26507e" d="M 191.5,179.5 C 194.532,179.178 196.199,180.511 196.5,183.5C 195.345,186.011 194.678,188.678 194.5,191.5C 193.5,191.5 192.5,191.5 191.5,191.5C 191.5,194.5 191.5,197.5 191.5,200.5C 188.813,200.664 186.146,200.497 183.5,200C 182.09,199.632 181.09,198.799 180.5,197.5C 184.612,192.736 188.279,187.736 191.5,182.5C 190.448,182.649 189.448,182.483 188.5,182C 189.571,181.148 190.571,180.315 191.5,179.5 Z"/></g>
<g><path style="opacity:1" fill="#1d4a78" d="M 158.5,247.5 C 157.325,247.719 156.325,247.386 155.5,246.5C 156.374,244.253 156.708,241.92 156.5,239.5C 158.199,239.66 159.866,239.494 161.5,239C 164.634,235.502 168.134,232.335 172,229.5C 170.834,226.816 171.667,224.816 174.5,223.5C 175.429,222.311 175.762,220.978 175.5,219.5C 176.833,219.5 178.167,219.5 179.5,219.5C 179.5,218.167 179.5,216.833 179.5,215.5C 182.435,214.699 185.101,213.366 187.5,211.5C 189.55,211.039 191.55,210.372 193.5,209.5C 193.833,209.833 194.167,210.167 194.5,210.5C 192.127,213.018 191.127,216.018 191.5,219.5C 187.842,218.68 185.509,220.013 184.5,223.5C 183.833,222.5 183.167,221.5 182.5,220.5C 181.77,221.934 180.77,223.1 179.5,224C 180.624,224.249 181.624,224.749 182.5,225.5C 174.814,229.186 169.814,235.186 167.5,243.5C 164.724,243.946 162.224,244.946 160,246.5C 158.893,245.288 158.393,245.621 158.5,247.5 Z"/></g>
<g><path style="opacity:1" fill="#526783" d="M 165.5,220.5 C 166.117,220.389 166.617,220.056 167,219.5C 167.333,220.833 167.667,222.167 168,223.5C 168.777,221.299 169.944,221.299 171.5,223.5C 171.396,227.434 169.729,230.434 166.5,232.5C 163.965,231.497 161.798,232.163 160,234.5C 159.501,230.848 159.335,227.182 159.5,223.5C 162.077,223.545 164.077,222.545 165.5,220.5 Z"/></g>
<g><path style="opacity:1" fill="#3c587c" d="M 45.5,226.5 C 47.0481,226.821 47.7148,227.821 47.5,229.5C 49.6547,229.372 51.6547,229.872 53.5,231C 50.7124,233.374 51.0458,234.707 54.5,235C 53.3318,236.406 53.6652,237.572 55.5,238.5C 60.8025,239.329 66.1358,239.829 71.5,240C 70.6919,240.308 70.0253,240.808 69.5,241.5C 72.2729,244.063 74.2729,247.063 75.5,250.5C 64.8333,250.5 54.1667,250.5 43.5,250.5C 43.5,247.5 43.5,244.5 43.5,241.5C 40.8736,240.578 38.2069,239.578 35.5,238.5C 33.8453,235.679 31.6786,233.346 29,231.5C 28.5172,232.448 28.3505,233.448 28.5,234.5C 25.4148,234.542 23.0814,235.875 21.5,238.5C 19.604,239.466 17.604,239.799 15.5,239.5C 15.5,238.5 15.5,237.5 15.5,236.5C 17.5,236.5 19.5,236.5 21.5,236.5C 21.238,235.022 21.5713,233.689 22.5,232.5C 24.7105,231.877 26.7105,230.877 28.5,229.5C 22.7493,228.655 17.4159,229.989 12.5,233.5C 11.4104,232.609 11.4104,231.609 12.5,230.5C 11.8333,230.167 11.1667,229.833 10.5,229.5C 6.99352,229.79 3.32686,229.79 -0.5,229.5C -0.5,228.167 -0.5,226.833 -0.5,225.5C 3.83333,225.5 8.16667,225.5 12.5,225.5C 12.5,224.167 12.5,222.833 12.5,221.5C 13.5,221.5 14.5,221.5 15.5,221.5C 15.786,218.063 17.1193,215.063 19.5,212.5C 20.6454,214.635 20.6454,216.801 19.5,219C 16.8755,221.162 15.8755,223.995 16.5,227.5C 23.0359,227.091 29.3693,225.757 35.5,223.5C 39.5812,223.274 41.7479,225.274 42,229.5C 42.4828,228.552 42.6495,227.552 42.5,226.5C 43.5,226.5 44.5,226.5 45.5,226.5 Z"/></g>
<g><path style="opacity:1" fill="#506482" d="M 45.5,207.5 C 46.1667,207.5 46.8333,207.5 47.5,207.5C 47.8273,210.482 47.8273,213.315 47.5,216C 48.6184,217.074 49.6184,218.24 50.5,219.5C 54.0904,220.06 54.4237,218.893 51.5,216C 53.1796,215.966 54.6796,215.799 56,215.5C 61.579,219.4 66.9123,223.734 72,228.5C 71.4742,226.773 71.6409,225.106 72.5,223.5C 78.6549,224.733 82.3215,228.4 83.5,234.5C 91.0464,237.016 91.0464,238.849 83.5,240C 87.3981,241.475 91.3981,242.642 95.5,243.5C 92.3606,244.621 89.3606,245.954 86.5,247.5C 85.8333,247.333 85.1667,247.167 84.5,247C 85.6226,245.956 86.9559,245.29 88.5,245C 85.3812,243.595 82.0479,243.095 78.5,243.5C 78.5,245.833 78.5,248.167 78.5,250.5C 77.5,250.5 76.5,250.5 75.5,250.5C 74.2729,247.063 72.2729,244.063 69.5,241.5C 70.0253,240.808 70.6919,240.308 71.5,240C 66.1358,239.829 60.8025,239.329 55.5,238.5C 53.6652,237.572 53.3318,236.406 54.5,235C 51.0458,234.707 50.7124,233.374 53.5,231C 51.6547,229.872 49.6547,229.372 47.5,229.5C 47.7148,227.821 47.0481,226.821 45.5,226.5C 44.9711,224.417 43.9711,222.583 42.5,221C 39.8014,221.438 37.1347,221.272 34.5,220.5C 36.0453,219.548 37.712,219.215 39.5,219.5C 39.5,218.5 39.5,217.5 39.5,216.5C 37.9397,216.481 36.4397,216.148 35,215.5C 33.1884,213.688 31.3551,211.855 29.5,210C 22.366,208.15 15.0326,206.983 7.5,206.5C 9.0164,202.638 11.6831,200.305 15.5,199.5C 15.3433,200.873 15.51,202.207 16,203.5C 17.0195,202.313 18.1861,201.313 19.5,200.5C 23.1263,202.627 26.2929,205.293 29,208.5C 32.1589,208.07 34.9922,206.903 37.5,205C 36.2888,204.107 36.2888,203.274 37.5,202.5C 39.4086,203.348 41.4086,203.682 43.5,203.5C 43.1568,205.483 43.8235,206.817 45.5,207.5 Z"/></g>
<g><path style="opacity:1" fill="#2c4e77" d="M 15.5,239.5 C 11.0094,237.477 8.67606,238.977 8.5,244C 4.98525,244.766 1.98525,246.266 -0.5,248.5C -0.5,242.167 -0.5,235.833 -0.5,229.5C 3.32686,229.79 6.99352,229.79 10.5,229.5C 11.1667,229.833 11.8333,230.167 12.5,230.5C 11.4104,231.609 11.4104,232.609 12.5,233.5C 17.4159,229.989 22.7493,228.655 28.5,229.5C 26.7105,230.877 24.7105,231.877 22.5,232.5C 21.5713,233.689 21.238,235.022 21.5,236.5C 19.5,236.5 17.5,236.5 15.5,236.5C 15.5,237.5 15.5,238.5 15.5,239.5 Z"/></g>
<g><path style="opacity:1" fill="#204d7b" d="M 165.5,220.5 C 164.127,220.343 162.793,220.51 161.5,221C 155.79,222.315 154.457,225.315 157.5,230C 157.167,230.833 156.833,231.667 156.5,232.5C 154.845,235.144 152.845,237.477 150.5,239.5C 149.719,243.682 147.386,246.349 143.5,247.5C 143.5,248.5 143.5,249.5 143.5,250.5C 128.5,250.5 113.5,250.5 98.5,250.5C 98.9202,248.326 98.9202,246.326 98.5,244.5C 99.0149,242.775 99.6816,241.108 100.5,239.5C 103.556,237.711 106.889,237.044 110.5,237.5C 110.351,236.448 110.517,235.448 111,234.5C 113.139,235.769 115.305,235.769 117.5,234.5C 119.417,232.568 121.417,230.901 123.5,229.5C 125.6,229.477 127.433,230.144 129,231.5C 131.881,229.476 135.047,228.143 138.5,227.5C 138.338,229.527 138.505,231.527 139,233.5C 139.414,233.957 139.914,234.291 140.5,234.5C 141.521,232.381 143.021,230.714 145,229.5C 145.175,225.789 145.675,222.122 146.5,218.5C 147.919,217.995 148.585,216.995 148.5,215.5C 151.564,215.072 154.564,214.406 157.5,213.5C 157.617,215.484 156.95,217.15 155.5,218.5C 156.348,220.283 157.681,220.783 159.5,220C 159.167,219.667 158.833,219.333 158.5,219C 162.603,218.251 164.27,215.751 163.5,211.5C 165.929,211.116 168.263,210.449 170.5,209.5C 170.665,213.182 170.499,216.848 170,220.5C 168.253,213.958 166.753,213.958 165.5,220.5 Z"/></g>
<g><path style="opacity:1" fill="#476082" d="M 95.5,204.5 C 98.5176,204.704 101.518,205.037 104.5,205.5C 104.579,206.93 104.246,208.264 103.5,209.5C 101.379,211.021 99.8786,213.021 99,215.5C 98.2204,217.387 98.3871,219.054 99.5,220.5C 99.5858,221.496 99.2524,222.329 98.5,223C 100.473,223.495 102.473,223.662 104.5,223.5C 104.5,224.5 104.5,225.5 104.5,226.5C 106.331,227.052 107.997,227.052 109.5,226.5C 110.192,227.025 110.692,227.692 111,228.5C 111.674,227.422 112.674,226.755 114,226.5C 115.825,226.943 117.658,227.277 119.5,227.5C 119.351,228.552 119.517,229.552 120,230.5C 121.011,229.663 122.178,229.33 123.5,229.5C 121.417,230.901 119.417,232.568 117.5,234.5C 115.305,235.769 113.139,235.769 111,234.5C 110.517,235.448 110.351,236.448 110.5,237.5C 106.889,237.044 103.556,237.711 100.5,239.5C 99.6816,241.108 99.0149,242.775 98.5,244.5C 98.9202,246.326 98.9202,248.326 98.5,250.5C 91.8333,250.5 85.1667,250.5 78.5,250.5C 78.5,248.167 78.5,245.833 78.5,243.5C 82.0479,243.095 85.3812,243.595 88.5,245C 86.9559,245.29 85.6226,245.956 84.5,247C 85.1667,247.167 85.8333,247.333 86.5,247.5C 89.3606,245.954 92.3606,244.621 95.5,243.5C 91.3981,242.642 87.3981,241.475 83.5,240C 91.0464,238.849 91.0464,237.016 83.5,234.5C 82.3215,228.4 78.6549,224.733 72.5,223.5C 71.1667,223.5 69.8333,223.5 68.5,223.5C 68.5,221.833 68.5,220.167 68.5,218.5C 65.9857,218.246 63.6524,217.413 61.5,216C 60.7239,213.013 59.0572,212.18 56.5,213.5C 55.1515,211.389 55.4848,209.555 57.5,208C 61.1516,207.501 64.8183,207.335 68.5,207.5C 68.8257,210.311 69.6591,212.978 71,215.5C 71.4828,214.552 71.6495,213.552 71.5,212.5C 74.2514,212.472 76.5847,211.472 78.5,209.5C 79.1667,210.167 79.8333,210.833 80.5,211.5C 81.1719,210.051 81.8386,208.718 82.5,207.5C 83.1814,209.158 84.0147,210.825 85,212.5C 86.3561,211.62 87.8561,211.286 89.5,211.5C 89.1778,209.525 89.1778,207.858 89.5,206.5C 90.3285,213.321 90.8285,220.321 91,227.5C 92.049,229.107 93.549,229.773 95.5,229.5C 95.7947,227.265 95.4614,225.265 94.5,223.5C 94.5,219.5 94.5,215.5 94.5,211.5C 95.2341,210.292 95.5674,208.959 95.5,207.5C 95.5,206.5 95.5,205.5 95.5,204.5 Z"/></g>
<g><path style="opacity:1" fill="#e5e9ec" d="M 94.5,211.5 C 94.5,215.5 94.5,219.5 94.5,223.5C 92.5864,220.316 91.9197,216.649 92.5,212.5C 92.8417,211.662 93.5084,211.328 94.5,211.5 Z"/></g>
<g><path style="opacity:1" fill="#a86b4a" d="M 91.5,207.5 C 92.8333,207.5 94.1667,207.5 95.5,207.5C 95.5674,208.959 95.2341,210.292 94.5,211.5C 93.5084,211.328 92.8417,211.662 92.5,212.5C 91.5489,211.081 91.2155,209.415 91.5,207.5 Z"/></g>
<g><path style="opacity:1" fill="#395679" d="M 200.5,208.5 C 200.5,222.5 200.5,236.5 200.5,250.5C 188.5,250.5 176.5,250.5 164.5,250.5C 164.5,249.5 164.5,248.5 164.5,247.5C 162.5,247.5 160.5,247.5 158.5,247.5C 158.393,245.621 158.893,245.288 160,246.5C 162.224,244.946 164.724,243.946 167.5,243.5C 169.814,235.186 174.814,229.186 182.5,225.5C 181.624,224.749 180.624,224.249 179.5,224C 180.77,223.1 181.77,221.934 182.5,220.5C 183.167,221.5 183.833,222.5 184.5,223.5C 185.509,220.013 187.842,218.68 191.5,219.5C 191.127,216.018 192.127,213.018 194.5,210.5C 194.167,210.167 193.833,209.833 193.5,209.5C 191.55,210.372 189.55,211.039 187.5,211.5C 191.168,207.834 195.501,206.834 200.5,208.5 Z"/></g>
<g><path style="opacity:1" fill="#1c446e" d="M 196.5,224.5 C 197.497,224.47 198.164,224.97 198.5,226C 198.138,227.225 197.638,228.391 197,229.5C 193.858,230.978 191.358,233.145 189.5,236C 188.056,236.781 186.723,236.614 185.5,235.5C 187.698,232.906 188.698,229.906 188.5,226.5C 190.2,226.626 191.7,227.293 193,228.5C 195.074,227.928 196.24,226.595 196.5,224.5 Z"/></g>
<g><path style="opacity:1" fill="#405a78" d="M 43.5,250.5 C 28.8333,250.5 14.1667,250.5 -0.5,250.5C -0.5,249.833 -0.5,249.167 -0.5,248.5C 1.98525,246.266 4.98525,244.766 8.5,244C 8.67606,238.977 11.0094,237.477 15.5,239.5C 17.604,239.799 19.604,239.466 21.5,238.5C 23.0814,235.875 25.4148,234.542 28.5,234.5C 28.3505,233.448 28.5172,232.448 29,231.5C 31.6786,233.346 33.8453,235.679 35.5,238.5C 38.2069,239.578 40.8736,240.578 43.5,241.5C 43.5,244.5 43.5,247.5 43.5,250.5 Z"/></g>
</svg>
